<?xml version="1.0" standalone="no"?>
<!DOCTYPE svg PUBLIC "-//W3C//DTD SVG 1.1//EN" "http://www.w3.org/Graphics/SVG/1.1/DTD/svg11.dtd" >
<svg xmlns="http://www.w3.org/2000/svg" xmlns:xlink="http://www.w3.org/1999/xlink" version="1.1">
<metadata></metadata>
<defs>
<font id="uni_sansthin_caps" horiz-adv-x="1228" >
<font-face units-per-em="2048" ascent="1548" descent="-500" />
<missing-glyph horiz-adv-x="503" />
<glyph unicode="&#xfb01;" horiz-adv-x="1515" d="M190 0v1450h836v-51h-784v-676h712v-51h-712v-672h-52zM1274 0v1450h51v-1450h-51z" />
<glyph unicode="&#xfb02;" horiz-adv-x="2082" d="M190 0v1450h836v-51h-784v-676h712v-51h-712v-672h-52zM1262 0v1450h51v-1399h725v-51h-776z" />
<glyph horiz-adv-x="0" />
<glyph horiz-adv-x="682" />
<glyph unicode=" "  horiz-adv-x="503" />
<glyph unicode="&#x09;" horiz-adv-x="503" />
<glyph unicode="&#xa0;" horiz-adv-x="503" />
<glyph unicode="!" horiz-adv-x="397" d="M135 61q0 26 19 45t45 19t44.5 -19t18.5 -45t-18.5 -44.5t-44.5 -18.5t-45 18.5t-19 44.5zM172 270v1182h51v-1182h-51z" />
<glyph unicode="&#x22;" horiz-adv-x="544" d="M160 1090v360h51l-25 -360h-26zM348 1090v360h51l-24 -360h-27z" />
<glyph unicode="#" horiz-adv-x="1492" d="M92 489l10 41h332l117 400h-377l12 43h379l142 479h47l-144 -479h412l139 479h51l-145 -479h334l-15 -43h-335l-115 -400h379l-12 -41h-379l-148 -489h-49l150 489h-410l-148 -489h-49l150 489h-328zM479 530h412l117 400h-412z" />
<glyph unicode="$" horiz-adv-x="1198" d="M119 209l47 20q66 -96 179 -150t239 -54v694q-52 11 -93 21.5t-90 28.5t-86 38t-73 50t-59 65.5t-37.5 83.5t-14.5 104q0 90 38.5 160.5t103.5 112.5t144 63.5t167 23.5v146h41v-146q139 -5 250.5 -60t173.5 -163l-48 -18q-52 89 -153.5 138t-222.5 54v-659 q78 -16 137.5 -34t123 -50.5t105 -74t68 -106t26.5 -145.5q0 -88 -39.5 -161t-105.5 -118.5t-147 -70.5t-168 -25v-172h-41v172q-138 0 -263.5 58.5t-201.5 173.5zM182 1110q0 -61 21 -111t56 -85t88 -63.5t109 -46.5t128 -34v651q-77 -2 -147.5 -22t-128.5 -57t-92 -97 t-34 -135zM625 25q74 0 144.5 21.5t129 61t94 103t35.5 141.5q0 68 -22 122t-57 90.5t-90 66t-108.5 47t-125.5 33.5v-686z" />
<glyph unicode="%" horiz-adv-x="1462" d="M98 1079q0 174 78 270.5t205 96.5q133 0 208 -97.5t75 -273.5q0 -169 -79 -268.5t-204 -99.5q-136 0 -209.5 95.5t-73.5 276.5zM158 1079q0 -168 53.5 -242.5t169.5 -74.5q114 0 169.5 76t55.5 237t-59 239.5t-168 78.5q-113 0 -167 -78t-54 -236zM209 -72l1008 1594 l40 -25l-1005 -1595q-9 5 -23.5 14t-19.5 12zM799 358q0 174 78 270.5t204 96.5q133 0 208 -97.5t75 -273.5q0 -169 -79 -268.5t-204 -99.5q-136 0 -209 95.5t-73 276.5zM854 358q0 -167 54 -242t171 -75q114 0 171 76t57 235q0 161 -60.5 239.5t-169.5 78.5 q-223 0 -223 -312z" />
<glyph unicode="&#x26;" horiz-adv-x="1247" d="M98 365q0 248 338 446q-85 100 -135.5 185.5t-50.5 164.5q0 132 95 212.5t228 80.5q116 0 201.5 -77t85.5 -193q0 -64 -24.5 -120t-71 -100t-93.5 -75.5t-112 -65.5l-47 -28l416 -457l127 201l35 -19l-129 -211l225 -256h-60l-188 211q-66 -89 -128.5 -146.5t-142 -91.5 t-169.5 -34q-170 0 -285 102.5t-115 270.5zM150 369q0 -153 97.5 -243.5t266.5 -90.5q115 0 214.5 73.5t176.5 184.5l-438 489q-317 -185 -317 -413zM301 1165q0 -132 180 -336q59 29 101.5 53.5t88.5 58.5t74.5 67t47 76.5t18.5 91.5q0 102 -69 167.5t-175 65.5 q-110 0 -188 -69.5t-78 -174.5z" />
<glyph unicode="'" horiz-adv-x="364" d="M160 1087v363h55l-16 -363h-39z" />
<glyph unicode="(" horiz-adv-x="503" d="M123 702q0 227 66.5 448.5t193.5 410.5l37 -29q-121 -177 -182.5 -391.5t-61.5 -442.5q0 -227 64.5 -443t189.5 -396l-39 -23q-132 190 -200 413t-68 453z" />
<glyph unicode=")" horiz-adv-x="503" d="M76 1511l33 21l-3 -2q1 0 2.5 1t4 2.5t4.5 2.5q129 -190 196.5 -421t67.5 -472q0 -494 -256 -868l-43 26q244 373 244 838q0 230 -63.5 453t-186.5 419z" />
<glyph unicode="*" horiz-adv-x="905" d="M121 1200q2 7 4 21t4 20l311 -104q0 49 -2 157t-2 158h41l-4 -317q87 27 148.5 48.5t100 36t52.5 19.5l12 -41l-301 -94l195 -266l-33 -23l-192 266q-30 -45 -98.5 -137t-94.5 -129l-33 27l203 262q-29 9 -311 96z" />
<glyph unicode="+" horiz-adv-x="1181" d="M102 674v47h473v463h46v-463h456v-47h-456v-465h-46v465h-473z" />
<glyph unicode="," horiz-adv-x="393" d="M59 -248l113 332h72l-140 -332h-45z" />
<glyph unicode="-" horiz-adv-x="862" d="M156 590v49h551v-49h-551z" />
<glyph unicode="." horiz-adv-x="438" d="M156 57q0 26 18.5 45t44.5 19t45 -19t19 -45t-19 -44.5t-45 -18.5t-44.5 18.5t-18.5 44.5z" />
<glyph unicode="/" horiz-adv-x="761" d="M63 -18l599 1499l36 -13q-167 -423 -298 -754.5t-192.5 -487.5t-101.5 -257q-35 9 -43 13z" />
<glyph unicode="0" horiz-adv-x="1280" d="M152 367v716q0 96 43.5 172t115 122t156 69.5t174.5 23.5q89 0 173.5 -23.5t155.5 -69.5t114.5 -122t43.5 -172v-716q0 -95 -43.5 -171t-114.5 -122t-155.5 -70t-173.5 -24t-174 24t-156.5 70t-115 122t-43.5 171zM203 367q0 -72 26.5 -130t69.5 -95.5t101 -63t118 -36.5 t123 -11q62 0 122 11t117.5 36.5t100.5 63t69.5 95.5t26.5 130v716q0 89 -39.5 157t-105 105.5t-139 55.5t-152.5 18q-63 0 -123 -10.5t-118 -36t-101 -63t-69.5 -96t-26.5 -130.5v-716z" />
<glyph unicode="1" horiz-adv-x="595" d="M41 1126l297 324h70v-1450h-50v1399l-284 -301z" />
<glyph unicode="2" horiz-adv-x="1124" d="M90 47l698 731q160 167 160 312q0 135 -108.5 229t-284.5 100q-133 4 -233 -50.5t-156 -160.5l-45 21q60 124 165.5 181.5t270.5 59.5q192 -1 318 -111t126 -272q0 -81 -45.5 -171.5t-128.5 -176.5l-659 -688h836v-51h-891z" />
<glyph unicode="3" horiz-adv-x="1163" d="M92 195l43 26q73 -100 173.5 -146t240.5 -46q84 0 162 23t140.5 66t100 112t37.5 153q0 186 -104.5 283.5t-290.5 95.5h-139v49h139q148 0 239 79t91 228q0 76 -33 136t-88 96t-121.5 54.5t-138.5 18.5q-113 0 -204.5 -39t-145.5 -118l-41 20q118 184 395 184 q65 0 126 -13t116 -41.5t95.5 -69t64.5 -99.5t24 -129q0 -236 -203 -325q79 -29 134 -72.5t83.5 -99t40.5 -113t12 -127.5q-1 -96 -43.5 -173.5t-112 -126.5t-156 -75t-179.5 -26q-313 0 -457 215z" />
<glyph unicode="4" horiz-adv-x="1171" d="M63 469l799 981h72v-995h141v-47h-141v-408h-51v408h-787zM115 455h768l2 946z" />
<glyph unicode="5" horiz-adv-x="1175" d="M125 190l49 25q57 -86 166 -135t231 -49q443 0 443 481q0 114 -60.5 200.5t-157 129.5t-210.5 43q-116 0 -208.5 -21.5t-191.5 -72.5l-22 -3v662h827v-47h-776v-547q189 81 373 78q72 -1 140 -17t129.5 -50t107.5 -82.5t73.5 -118t28.5 -152.5q0 -253 -119 -395 t-377 -142q-142 0 -260 54t-186 159z" />
<glyph unicode="6" horiz-adv-x="1265" d="M152 367v716q0 93 43 169t114.5 122.5t160.5 71.5t185 24q144 0 260.5 -49t178.5 -147l-47 -25q-54 88 -157.5 130t-234.5 42q-88 0 -168 -21.5t-144 -62t-102 -107t-38 -149.5v-426q38 66 93.5 113t119 70.5t121 33t118.5 9.5q76 -1 147.5 -16.5t134.5 -47.5t110 -76.5 t74.5 -108t27.5 -138.5v-127q0 -93 -41.5 -168t-112 -122t-158 -72t-182.5 -25q-96 -1 -185 24t-160.5 71.5t-114.5 122.5t-43 169zM203 369q0 -83 38 -149.5t102 -107t144 -62t168 -21.5q117 0 215.5 36.5t163 115.5t64.5 188v123q0 109 -64.5 187.5t-163 115t-215.5 36.5 q-120 0 -220 -36t-166 -114.5t-66 -188.5v-123z" />
<glyph unicode="7" horiz-adv-x="1009" d="M80 1401v49h858l29 -49l-766 -1401h-58l764 1401h-827z" />
<glyph unicode="8" horiz-adv-x="1257" d="M121 391q0 151 70 248.5t221 142.5q-62 20 -107 57.5t-69.5 84t-36 94.5t-11.5 100q1 84 36.5 152.5t94.5 111.5t133.5 65.5t155.5 22.5h39q81 0 155 -22.5t134 -65.5t95.5 -111.5t35.5 -152.5q0 -50 -11 -97t-34.5 -93.5t-68.5 -84t-107 -59.5q288 -80 291 -393 q-2 -96 -44 -175t-111 -130t-155.5 -78.5t-179.5 -27.5h-39q-125 0 -233.5 46.5t-180 142t-73.5 222.5zM170 393q0 -72 26.5 -133.5t70 -103.5t100.5 -72t118 -43.5t123 -13.5h39q62 0 123 13.5t118 43.5t100.5 72t70 103.5t26.5 133.5q0 369 -438 369h-39q-438 0 -438 -369 zM236 1118q0 -70 21.5 -125.5t57 -90.5t84.5 -57.5t100.5 -32t108.5 -9.5h39q73 0 136 16t118 50.5t87 98t32 150.5q0 76 -31 136.5t-84.5 96.5t-119 55t-138.5 19h-39q-99 0 -181 -31.5t-136.5 -103t-54.5 -172.5z" />
<glyph unicode="9" horiz-adv-x="1265" d="M117 956v127q0 93 41.5 168t111.5 122t157.5 72t182.5 25q97 1 185 -23t159.5 -70t115 -122t44.5 -172v-714q0 -93 -43 -169t-114.5 -123.5t-161 -72.5t-185.5 -24q-306 0 -436 204l49 25q55 -89 157 -134.5t230 -45.5q88 0 168.5 22.5t144.5 64.5t102 109t38 150v403 q-37 -56 -83 -96t-89 -61.5t-96 -33.5t-93 -15t-92 -3q-76 1 -147.5 16.5t-134 47.5t-109.5 76.5t-74.5 108t-27.5 138.5zM168 958q0 -109 64 -188t162.5 -115.5t215.5 -36.5q89 0 169 21.5t144.5 62t103 107t38.5 149.5v123q0 83 -38.5 149.5t-103 107t-144.5 62t-169 21.5 q-117 0 -215.5 -36.5t-162.5 -115.5t-64 -188v-123z" />
<glyph unicode=":" horiz-adv-x="438" d="M156 117q0 26 18.5 44.5t44.5 18.5t45 -18.5t19 -44.5t-19 -45t-45 -19t-44.5 19t-18.5 45zM156 891q0 26 18.5 44.5t44.5 18.5t45 -18.5t19 -44.5t-19 -45t-45 -19t-44.5 19t-18.5 45z" />
<glyph unicode=";" horiz-adv-x="557" d="M168 -203l90 295h84l-123 -295h-51zM223 860q0 26 19 45t45 19t44.5 -19t18.5 -45t-18.5 -44.5t-44.5 -18.5t-45 18.5t-19 44.5z" />
<glyph unicode="&#x3c;" horiz-adv-x="905" d="M98 594v53l660 389v-53l-615 -362l615 -359v-51q-111 67 -329.5 191.5t-330.5 191.5z" />
<glyph unicode="=" horiz-adv-x="1083" d="M160 455v45h764v-45h-764zM160 737v45h764v-45h-764z" />
<glyph unicode="&#x3e;" horiz-adv-x="911" d="M147 211v47l623 363q-75 44 -292.5 170.5t-330.5 191.5v53q112 -68 333.5 -194.5t332.5 -194.5v-53z" />
<glyph unicode="?" horiz-adv-x="925" d="M72 1319q66 64 157 102.5t183 38.5q82 0 157.5 -25t136.5 -71.5t97 -121.5t35 -167q-1 -94 -36 -173t-94 -132.5t-134 -86.5t-158 -42l-13 -395h-36l-9 430q116 7 214 56.5t159.5 140t59.5 204.5q-2 108 -58 186t-140.5 114t-184.5 36q-76 0 -161 -35t-147 -88zM330 49 q0 23 16 39t39 16q22 0 38.5 -16t16.5 -39t-16.5 -38t-38.5 -15q-23 0 -39 15t-16 38z" />
<glyph unicode="@" horiz-adv-x="1595" d="M125 616q0 153 56 287.5t152 229.5t227.5 149.5t277.5 54.5q185 0 334 -71.5t236 -204t87 -301.5q0 -125 -43.5 -235.5t-109.5 -180t-142.5 -108t-144.5 -33.5q-129 8 -92 168q-125 -174 -297 -174q-112 0 -174 76t-62 188q0 102 31 200.5t85.5 178t139 128t182.5 48.5 q27 0 51.5 -4t56 -17.5t54.5 -35.5t41 -63.5t23 -96.5l10 -2l61 174h43l-180 -537l-12 -36t-9.5 -35.5t-6 -36t2 -30t11 -26.5t25 -15.5t40.5 -6.5q91 0 177 70.5t140 190t54 251.5q0 160 -86 284t-223.5 187t-298.5 63q-195 0 -350 -90.5t-239.5 -245t-84.5 -342.5 q0 -118 31.5 -220.5t87 -179t133 -131t168.5 -80t195 -22.5t210 37l13 -38q-111 -36 -221.5 -39.5t-207.5 23t-180.5 84t-143.5 138t-94 191t-34 237.5zM471 465q0 -100 56 -163.5t149 -63.5q59 0 116 31t102.5 83t80.5 113.5t57 128.5q17 50 23.5 103t0 105t-27 91.5 t-64 62.5t-104.5 19q-75 1 -140 -31.5t-109.5 -86t-77 -121.5t-47.5 -137.5t-15 -133.5z" />
<glyph unicode="A" d="M37 0l536 1450h82l537 -1450h-55l-193 518h-659l-193 -518h-55zM303 569h623l-308 832h-8z" />
<glyph unicode="B" horiz-adv-x="1284" d="M190 0v1450h531q166 0 272.5 -93t106.5 -259q0 -96 -36.5 -173t-109.5 -120l-63 -35l72 -25q57 -24 99.5 -65.5t65 -91.5t32.5 -100q9 -45 9 -92v-9q-2 -109 -36.5 -186t-97 -120t-140 -62t-176.5 -19h-529zM242 49h479h13q176 1 278 79q106 82 106 261q0 354 -390 354 h-7h-479v-694zM242 793h479q150 0 240 76t90 227q0 147 -93 227t-237 80h-479v-610z" />
<glyph unicode="C" horiz-adv-x="1196" d="M160 385v680q0 96 44 175t117.5 128t164 75.5t188.5 26.5q143 0 265.5 -53.5t184.5 -154.5l-45 -33q-55 91 -168.5 141.5t-242.5 50.5q-86 0 -166.5 -22.5t-146 -65.5t-105 -112.5t-39.5 -155.5v-680q0 -86 39.5 -155t105 -111.5t146 -65t166.5 -22.5q129 0 241 46.5 t170 135.5l45 -23q-62 -101 -187 -155.5t-269 -54.5q-77 0 -150 16t-138 49.5t-114 81t-77.5 114t-28.5 144.5z" />
<glyph unicode="D" horiz-adv-x="1312" d="M190 0v1450h490q98 0 180.5 -23t147.5 -68.5t102 -121.5t37 -176v-674q0 -99 -37 -174.5t-102 -121.5t-147.5 -68.5t-180.5 -22.5h-490zM242 51h438q88 0 162 19t131.5 58.5t90 105.5t32.5 153v674q0 88 -32.5 154.5t-90 106t-131 58.5t-162.5 19h-438v-1348z" />
<glyph unicode="E" horiz-adv-x="1157" d="M190 0v1450h863v-51h-811v-649h749v-56h-749v-643h811v-51h-863z" />
<glyph unicode="F" horiz-adv-x="1099" d="M190 0v1450h836v-51h-784v-676h712v-51h-712v-672h-52z" />
<glyph unicode="G" horiz-adv-x="1298" d="M160 391v674q0 96 43.5 175t115.5 128t162 75.5t187 26.5q142 0 264 -54.5t184 -155.5l-47 -31q-53 95 -162.5 142.5t-242.5 47.5q-87 0 -167 -22.5t-144.5 -65t-103 -111.5t-38.5 -155v-674q0 -88 39 -158.5t104 -114t145.5 -66.5t168.5 -23q87 0 167.5 23t146 66.5 t105 114.5t39.5 158v275h-444v49h496v-324q0 -99 -43.5 -179t-116.5 -129.5t-163 -76t-187 -26.5t-186.5 26.5t-162 76t-116 129.5t-43.5 179z" />
<glyph unicode="H" horiz-adv-x="1398" d="M190 0v1450h52v-700h915v700h51v-1450h-51v698h-915v-698h-52z" />
<glyph unicode="I" horiz-adv-x="432" d="M190 0v1450h52v-1450h-52z" />
<glyph unicode="J" horiz-adv-x="1181" d="M55 272l51 17q29 -87 98 -148t148 -86.5t164 -25.5q82 0 158 22t138.5 64.5t100 111.5t37.5 156v1020h-483v47h534v-1067q0 -96 -41.5 -174.5t-111 -127.5t-155.5 -75t-179 -26q-103 0 -195 32t-164 99.5t-100 160.5z" />
<glyph unicode="K" horiz-adv-x="1210" d="M190 0v1450h52v-881l858 881h65l-669 -698l669 -752h-59l-647 715l-217 -217v-498h-52z" />
<glyph unicode="L" horiz-adv-x="1009" d="M190 0v1450h52v-1399h725v-51h-777z" />
<glyph unicode="M" horiz-adv-x="1632" d="M190 0v1450h109l518 -1174l516 1174h109v-1450h-51v1413h-19l-520 -1184h-70l-522 1170l-18 -2v-1397h-52z" />
<glyph unicode="N" horiz-adv-x="1374" d="M190 0v1450h80l863 -1401v1401h51v-1450h-88l-850 1384l-2 -1384h-54z" />
<glyph unicode="O" horiz-adv-x="1396" d="M158 391v670q0 98 46 178t122.5 129t171.5 75.5t198 26.5q82 0 160 -16t147 -50t121 -81.5t82.5 -115t30.5 -146.5v-670q0 -98 -46 -178t-123.5 -130t-173 -76.5t-198.5 -26.5t-198 26.5t-171.5 76.5t-122.5 130t-46 178zM209 391q0 -116 71.5 -199.5t179.5 -122 t236 -38.5q94 0 180 23t156 66t112 113.5t42 157.5v670q0 92 -42 163t-113 113t-156.5 63t-180.5 21q-95 -1 -179.5 -22.5t-154 -64t-110.5 -113t-41 -160.5v-670z" />
<glyph unicode="P" horiz-adv-x="1232" d="M190 0v1450h512q107 -1 193.5 -40t140.5 -102t82.5 -139.5t28.5 -158.5q0 -81 -28.5 -156.5t-81.5 -137.5t-139 -99.5t-193 -38.5h-463v-578h-52zM242 629h460q96 0 173 33t124 88t72 122.5t25 139.5q0 73 -25.5 141.5t-73 124.5t-124 90t-171.5 35h-460v-774z" />
<glyph unicode="Q" horiz-adv-x="1396" d="M160 391v670q0 98 46 178t122.5 129t171.5 75.5t198 26.5q81 0 158.5 -16t147 -50t121 -81.5t82 -115t30.5 -146.5v-670q0 -90 -28 -148.5t-89 -121.5l109 -129l-39 -27l-107 125q-162 -110 -385 -110q-103 0 -198 26.5t-171.5 76.5t-122.5 130t-46 178zM211 391 q0 -85 41.5 -155.5t110 -114.5t155 -68t180.5 -24q198 0 357 102l-127 160l39 28l120 -157q99 80 99 229v670q0 87 -41.5 157.5t-111.5 113.5t-155.5 66t-179.5 23q-95 -1 -179.5 -22.5t-154.5 -64t-111.5 -113t-41.5 -160.5v-670z" />
<glyph unicode="R" horiz-adv-x="1251" d="M190 0v1450h512q443 0 451 -393q0 -410 -448 -410h-78l489 -647h-59l-488 647h-329v-647h-50zM240 692h465q201 0 300 87t99 276q0 96 -29.5 165t-84 109t-124.5 58q-63 16 -143 16h-18h-465v-711z" />
<glyph unicode="S" horiz-adv-x="1183" d="M113 213l47 20q69 -98 185.5 -151t248.5 -53q77 0 148 19t130.5 55.5t99 97t50.5 137.5q1 14 1 28q0 38 -8 72q-11 46 -31 79.5t-54 62.5t-69 48.5t-84 37t-90.5 28.5t-96.5 23q-53 11 -95.5 22t-93.5 29t-89.5 39t-76.5 52t-61.5 67.5t-37.5 85.5q-12 43 -11 91v15 q2 70 29.5 128.5t72 99.5t103.5 69t125.5 41.5t136.5 13.5q148 0 266.5 -55t183.5 -168l-47 -18q-55 94 -164.5 143t-238.5 49q-80 0 -150 -17.5t-129 -52.5t-95.5 -95t-41.5 -138q-1 -12 -1 -24q0 -49 17 -91q21 -52 59 -88.5t96 -66t119 -48.5t136 -34q80 -16 144 -35 t131 -54t111 -79t70 -111q21 -54 20 -118q0 -15 -1 -31q-8 -112 -80.5 -195t-178.5 -123t-228 -40q-143 0 -271 58t-206 175z" />
<glyph unicode="T" horiz-adv-x="1107" d="M45 1399v51h1018v-51h-483v-1399h-52v1399h-483z" />
<glyph unicode="U" horiz-adv-x="1378" d="M180 397v1053h51v-1053q0 -89 39 -161t104 -116t145.5 -67.5t168.5 -23.5q69 0 135 14.5t125 44.5t103 73t70 103.5t26 132.5v1053h51v-1053q0 -100 -43.5 -181t-116.5 -131.5t-163 -77.5t-187 -27t-187 27t-162 77.5t-115.5 131.5t-43.5 181z" />
<glyph unicode="V" horiz-adv-x="1232" d="M33 1450h59l522 -1391h11l510 1393h57l-533 -1452h-81z" />
<glyph unicode="W" horiz-adv-x="1898" d="M51 1450h55l412 -1378h10l387 1161h68l389 -1165h12l406 1382h55l-424 -1450h-84l-387 1184l-389 -1184h-80z" />
<glyph unicode="X" horiz-adv-x="1120" d="M53 0l477 723l-475 727h58l448 -680l447 680h59l-477 -727l475 -723h-59l-445 688l-444 -688h-64z" />
<glyph unicode="Y" horiz-adv-x="1126" d="M39 1450h61l461 -817l475 817h64l-514 -875v-575h-51v575z" />
<glyph unicode="Z" horiz-adv-x="1124" d="M59 25l932 1380h-891v45h942l19 -27l-932 -1378h903v-45h-952z" />
<glyph unicode="[" horiz-adv-x="485" d="M162 -246v1784h237v-43h-188v-1696h188v-45h-237z" />
<glyph unicode="\" horiz-adv-x="788" d="M59 1518l39 14l633 -1577l-45 -14z" />
<glyph unicode="]" horiz-adv-x="487" d="M88 -207h184v1696h-184v49h238v-1796h-238v51z" />
<glyph unicode="^" horiz-adv-x="1042" d="M125 926l360 524h58q225 -331 372 -524h-55l-346 489l-334 -489h-55z" />
<glyph unicode="_" horiz-adv-x="1206" d="M125 -43h954v-45h-954v45z" />
<glyph unicode="`" horiz-adv-x="430" d="M45 1765h72l127 -211h-51z" />
<glyph unicode="a" d="M37 0l536 1450h82l537 -1450h-55l-193 518h-659l-193 -518h-55zM303 569h623l-308 832h-8z" />
<glyph unicode="b" horiz-adv-x="1284" d="M190 0v1450h531q166 0 272.5 -93t106.5 -259q0 -96 -36.5 -173t-109.5 -120l-63 -35l72 -25q57 -24 99.5 -65.5t65 -91.5t32.5 -100q9 -45 9 -92v-9q-2 -109 -36.5 -186t-97 -120t-140 -62t-176.5 -19h-529zM242 49h479h13q176 1 278 79q106 82 106 261q0 354 -390 354 h-7h-479v-694zM242 793h479q150 0 240 76t90 227q0 147 -93 227t-237 80h-479v-610z" />
<glyph unicode="c" horiz-adv-x="1196" d="M160 385v680q0 96 44 175t117.5 128t164 75.5t188.5 26.5q143 0 265.5 -53.5t184.5 -154.5l-45 -33q-55 91 -168.5 141.5t-242.5 50.5q-86 0 -166.5 -22.5t-146 -65.5t-105 -112.5t-39.5 -155.5v-680q0 -86 39.5 -155t105 -111.5t146 -65t166.5 -22.5q129 0 241 46.5 t170 135.5l45 -23q-62 -101 -187 -155.5t-269 -54.5q-77 0 -150 16t-138 49.5t-114 81t-77.5 114t-28.5 144.5z" />
<glyph unicode="d" horiz-adv-x="1312" d="M190 0v1450h490q98 0 180.5 -23t147.5 -68.5t102 -121.5t37 -176v-674q0 -99 -37 -174.5t-102 -121.5t-147.5 -68.5t-180.5 -22.5h-490zM242 51h438q88 0 162 19t131.5 58.5t90 105.5t32.5 153v674q0 88 -32.5 154.5t-90 106t-131 58.5t-162.5 19h-438v-1348z" />
<glyph unicode="e" horiz-adv-x="1157" d="M190 0v1450h863v-51h-811v-649h749v-56h-749v-643h811v-51h-863z" />
<glyph unicode="f" horiz-adv-x="1099" d="M190 0v1450h836v-51h-784v-676h712v-51h-712v-672h-52z" />
<glyph unicode="g" horiz-adv-x="1298" d="M160 391v674q0 96 43.5 175t115.5 128t162 75.5t187 26.5q142 0 264 -54.5t184 -155.5l-47 -31q-53 95 -162.5 142.5t-242.5 47.5q-87 0 -167 -22.5t-144.5 -65t-103 -111.5t-38.5 -155v-674q0 -88 39 -158.5t104 -114t145.5 -66.5t168.5 -23q87 0 167.5 23t146 66.5 t105 114.5t39.5 158v275h-444v49h496v-324q0 -99 -43.5 -179t-116.5 -129.5t-163 -76t-187 -26.5t-186.5 26.5t-162 76t-116 129.5t-43.5 179z" />
<glyph unicode="h" horiz-adv-x="1398" d="M190 0v1450h52v-700h915v700h51v-1450h-51v698h-915v-698h-52z" />
<glyph unicode="i" horiz-adv-x="432" d="M190 0v1450h52v-1450h-52z" />
<glyph unicode="j" horiz-adv-x="1181" d="M55 272l51 17q29 -87 98 -148t148 -86.5t164 -25.5q82 0 158 22t138.5 64.5t100 111.5t37.5 156v1020h-483v47h534v-1067q0 -96 -41.5 -174.5t-111 -127.5t-155.5 -75t-179 -26q-103 0 -195 32t-164 99.5t-100 160.5z" />
<glyph unicode="k" horiz-adv-x="1210" d="M190 0v1450h52v-881l858 881h65l-669 -698l669 -752h-59l-647 715l-217 -217v-498h-52z" />
<glyph unicode="l" horiz-adv-x="1007" d="M188 0v1450h52v-1399h725v-51h-777z" />
<glyph unicode="m" horiz-adv-x="1632" d="M190 0v1450h109l518 -1174l516 1174h109v-1450h-51v1413h-19l-520 -1184h-70l-522 1170l-18 -2v-1397h-52z" />
<glyph unicode="n" horiz-adv-x="1374" d="M190 0v1450h80l863 -1401v1401h51v-1450h-88l-850 1384l-2 -1384h-54z" />
<glyph unicode="o" horiz-adv-x="1396" d="M158 391v670q0 98 46 178t122.5 129t171.5 75.5t198 26.5q82 0 160 -16t147 -50t121 -81.5t82.5 -115t30.5 -146.5v-670q0 -98 -46 -178t-123.5 -130t-173 -76.5t-198.5 -26.5t-198 26.5t-171.5 76.5t-122.5 130t-46 178zM209 391q0 -116 71.5 -199.5t179.5 -122 t236 -38.5q94 0 180 23t156 66t112 113.5t42 157.5v670q0 92 -42 163t-113 113t-156.5 63t-180.5 21q-95 -1 -179.5 -22.5t-154 -64t-110.5 -113t-41 -160.5v-670z" />
<glyph unicode="p" horiz-adv-x="1232" d="M190 0v1450h512q107 -1 193.5 -40t140.5 -102t82.5 -139.5t28.5 -158.5q0 -81 -28.5 -156.5t-81.5 -137.5t-139 -99.5t-193 -38.5h-463v-578h-52zM242 629h460q96 0 173 33t124 88t72 122.5t25 139.5q0 73 -25.5 141.5t-73 124.5t-124 90t-171.5 35h-460v-774z" />
<glyph unicode="q" horiz-adv-x="1396" d="M160 391v670q0 98 46 178t122.5 129t171.5 75.5t198 26.5q81 0 158.5 -16t147 -50t121 -81.5t82 -115t30.5 -146.5v-670q0 -90 -28 -148.5t-89 -121.5l109 -129l-39 -27l-107 125q-162 -110 -385 -110q-103 0 -198 26.5t-171.5 76.5t-122.5 130t-46 178zM211 391 q0 -85 41.5 -155.5t110 -114.5t155 -68t180.5 -24q198 0 357 102l-127 160l39 28l120 -157q99 80 99 229v670q0 87 -41.5 157.5t-111.5 113.5t-155.5 66t-179.5 23q-95 -1 -179.5 -22.5t-154.5 -64t-111.5 -113t-41.5 -160.5v-670z" />
<glyph unicode="r" horiz-adv-x="1251" d="M190 0v1450h512q443 0 451 -393q0 -410 -448 -410h-78l489 -647h-59l-488 647h-329v-647h-50zM240 692h465q201 0 300 87t99 276q0 96 -29.5 165t-84 109t-124.5 58q-63 16 -143 16h-18h-465v-711z" />
<glyph unicode="s" horiz-adv-x="1183" d="M113 213l47 20q69 -98 185.5 -151t248.5 -53q77 0 148 19t130.5 55.5t99 97t50.5 137.5q1 14 1 28q0 38 -8 72q-11 46 -31 79.5t-54 62.5t-69 48.5t-84 37t-90.5 28.5t-96.5 23q-53 11 -95.5 22t-93.5 29t-89.5 39t-76.5 52t-61.5 67.5t-37.5 85.5q-12 43 -11 91v15 q2 70 29.5 128.5t72 99.5t103.5 69t125.5 41.5t136.5 13.5q148 0 266.5 -55t183.5 -168l-47 -18q-55 94 -164.5 143t-238.5 49q-80 0 -150 -17.5t-129 -52.5t-95.5 -95t-41.5 -138q-1 -12 -1 -24q0 -49 17 -91q21 -52 59 -88.5t96 -66t119 -48.5t136 -34q80 -16 144 -35 t131 -54t111 -79t70 -111q21 -54 20 -118q0 -15 -1 -31q-8 -112 -80.5 -195t-178.5 -123t-228 -40q-143 0 -271 58t-206 175z" />
<glyph unicode="t" horiz-adv-x="1107" d="M45 1399v51h1018v-51h-483v-1399h-52v1399h-483z" />
<glyph unicode="u" horiz-adv-x="1378" d="M180 397v1053h51v-1053q0 -89 39 -161t104 -116t145.5 -67.5t168.5 -23.5q69 0 135 14.5t125 44.5t103 73t70 103.5t26 132.5v1053h51v-1053q0 -100 -43.5 -181t-116.5 -131.5t-163 -77.5t-187 -27t-187 27t-162 77.5t-115.5 131.5t-43.5 181z" />
<glyph unicode="v" horiz-adv-x="1232" d="M33 1450h59l522 -1391h11l510 1393h57l-533 -1452h-81z" />
<glyph unicode="w" horiz-adv-x="1898" d="M51 1450h55l412 -1378h10l387 1161h68l389 -1165h12l406 1382h55l-424 -1450h-84l-387 1184l-389 -1184h-80z" />
<glyph unicode="x" horiz-adv-x="1120" d="M53 0l477 723l-475 727h58l448 -680l447 680h59l-477 -727l475 -723h-59l-445 688l-444 -688h-64z" />
<glyph unicode="y" horiz-adv-x="1126" d="M39 1450h61l461 -817l475 817h64l-514 -875v-575h-51v575z" />
<glyph unicode="z" horiz-adv-x="1124" d="M59 25l932 1380h-891v45h942l19 -27l-932 -1378h903v-45h-952z" />
<glyph unicode="{" horiz-adv-x="538" d="M94 621v36q78 20 112 115.5t34 231.5v296q0 46 2.5 75.5t11.5 62.5t26 51.5t48 30.5t75 12h48v-43h-45q-29 0 -50 -4.5t-34 -18t-20 -25t-10.5 -39t-4 -46t-0.5 -58.5v-299q1 -155 -39.5 -247t-91.5 -113q21 -9 40.5 -28t41 -57t34.5 -108t13 -163v-301q0 -92 26 -133.5 t107 -41.5h33v-43h-35q-101 0 -139.5 54.5t-38.5 161.5v296q0 150 -32 237t-112 108z" />
<glyph unicode="|" horiz-adv-x="368" d="M162 -330v1860h45v-1860h-45z" />
<glyph unicode="}" horiz-adv-x="538" d="M88 -193h31q79 0 107 45t28 130v297q0 272 131 366q-51 21 -91.5 113t-39.5 246v294q0 37 -0.5 56t-4 45.5t-11.5 39.5t-21 26.5t-34 18.5t-50 5h-45v41h47q97 0 130.5 -57t33.5 -173v-296q0 -310 145 -347v-36q-143 -37 -143 -345v-294q0 -218 -178 -218h-35v43z" />
<glyph unicode="~" horiz-adv-x="1085" d="M162 580q34 58 89 95.5t126 37.5q44 0 91 -22.5t82 -49.5t81 -49.5t88 -22.5q60 0 104 32.5t84 92.5l21 -24q-33 -63 -87.5 -104.5t-121.5 -41.5q-53 0 -116.5 36t-123.5 72t-104 36q-111 0 -191 -115q-4 4 -12 14.5t-10 12.5z" />
<glyph unicode="&#xa1;" horiz-adv-x="387" d="M131 1004q0 26 19 44.5t45 18.5t44.5 -18.5t18.5 -44.5t-18.5 -45t-44.5 -19t-45 19t-19 45zM166 -420v1172h55v-1172h-55z" />
<glyph unicode="&#xa2;" horiz-adv-x="950" d="M141 291v481q0 90 50 160.5t127 107.5t167 41v174h43v-174q101 -6 171.5 -39t121.5 -98l-33 -24q-40 53 -111.5 87t-148.5 31v-1013q86 3 168.5 45.5t110.5 105.5l39 -18q-39 -77 -124 -123t-194 -55v-173h-43v173q-146 16 -245 97t-99 214zM186 291q0 -112 84.5 -178.5 t214.5 -85.5v1009q-123 -5 -211.5 -74.5t-87.5 -187.5v-483z" />
<glyph unicode="&#xa3;" horiz-adv-x="1013" d="M109 0v43h213v698h-213v41h213v303q0 54 10.5 105.5t37.5 103t68 90t107.5 62.5t150.5 24q133 0 230 -77l-31 -35q-85 69 -203 69q-83 0 -147.5 -30t-101.5 -79.5t-55.5 -107t-18.5 -118.5v-310h338v-41h-338v-698h501v-43h-761z" />
<glyph unicode="&#xa4;" horiz-adv-x="1265" d="M158 725q0 188 123 322l-107 106l27 33l106 -113q158 125 326 125q178 0 319 -121l105 109l30 -25l-110 -114q131 -143 131 -322q0 -180 -127 -319l117 -113l-31 -29l-113 111q-162 -129 -321 -129q-164 0 -324 125l-106 -109l-29 27l111 110q-127 139 -127 326zM199 723 q0 -180 127 -306t303 -126q178 0 306 126t128 306q0 120 -59 221t-158.5 158t-216.5 57q-176 0 -303 -126.5t-127 -309.5z" />
<glyph unicode="&#xa5;" horiz-adv-x="1146" d="M59 1450h60l450 -840l463 840h60l-471 -852h313l-10 -47h-332v-152h342l-8 -45h-334v-354h-47v354h-338l6 45h332v152h-334l8 47h299z" />
<glyph unicode="&#xa6;" horiz-adv-x="393" d="M172 -260v709h49v-709h-49zM172 764v682h49v-682h-49z" />
<glyph unicode="&#xa7;" horiz-adv-x="958" d="M113 -66l47 21q48 -87 131 -128.5t168 -43.5q57 -1 105 10t92 37t69 76t25 121q0 46 -20 86.5t-47 68.5t-75 58.5t-82 47t-91.5 43t-82.5 38.5q-103 54 -161 116.5t-58 155.5q0 85 67.5 153.5t178.5 116.5q-99 59 -148 118.5t-49 135.5q0 133 101.5 213t238.5 80 q87 0 170 -36t119 -111l-41 -23q-70 123 -248 123q-71 0 -137 -28.5t-110 -86t-44 -131.5q0 -49 19.5 -87.5t67 -72.5t80 -51.5t103.5 -50.5q14 -7 21 -10q55 -25 91 -44t84 -51t76 -63t48.5 -75.5t20.5 -94.5q0 -80 -59 -153.5t-150 -124.5q84 -49 130 -116.5t46 -129.5 q0 -83 -29.5 -144.5t-80.5 -95.5t-110.5 -49.5t-129.5 -15.5q-109 0 -206 52.5t-140 145.5zM184 641q0 -35 12.5 -66.5t28.5 -52t44 -42.5t44.5 -32t44.5 -26l230 -113q78 41 140.5 108.5t62.5 141.5q0 54 -32 105.5t-70.5 83t-82.5 55.5l-168 82q-44 -15 -83.5 -35 t-80.5 -50t-65.5 -71.5t-24.5 -87.5z" />
<glyph unicode="&#xa8;" horiz-adv-x="614" d="M57 1657q0 20 14.5 34.5t34.5 14.5t35 -14.5t15 -34.5t-15 -34.5t-35 -14.5t-34.5 14.5t-14.5 34.5zM426 1657q0 20 14.5 34.5t34.5 14.5t34.5 -14.5t14.5 -34.5t-14.5 -34.5t-34.5 -14.5t-34.5 14.5t-14.5 34.5z" />
<glyph unicode="&#xa9;" horiz-adv-x="1699" d="M123 725q0 196 98 363.5t265.5 265.5t363.5 98t363.5 -98t265.5 -265.5t98 -363.5t-98 -363.5t-265.5 -265.5t-363.5 -98t-363.5 98t-265.5 265.5t-98 363.5zM170 725q0 -187 90.5 -343t246.5 -246.5t343 -90.5t343 90.5t246.5 246.5t90.5 343t-90.5 343t-246.5 246.5 t-343 90.5t-343 -90.5t-246.5 -246.5t-90.5 -343zM483 571v310q0 75 31.5 135t84 97.5t117 57t134.5 19.5q98 0 181 -34.5t132 -102.5l-35 -23q-83 115 -278 115q-85 0 -156 -27t-118.5 -87.5t-47.5 -145.5v-314q0 -87 47.5 -148.5t118.5 -88.5t156 -27q96 0 178 39.5 t119 112.5q11 -4 23 -11t20 -10q-44 -84 -137.5 -130t-202.5 -46q-70 0 -134.5 19.5t-117 57t-84 97.5t-31.5 135z" />
<glyph unicode="&#xaa;" horiz-adv-x="761" d="M121 987q1 57 22 97.5t58 62.5t79 31.5t93 9.5q101 0 190 -37v104q0 75 -57.5 113.5t-140.5 38.5q-92 0 -172 -64l-31 27q93 80 207 80q97 0 167 -50t70 -143v-456q-136 -42 -264 -39q-94 2 -157.5 64.5t-63.5 160.5zM164 987q0 -83 51.5 -132.5t130.5 -51.5 q104 0 217 22v287q-109 37 -194 37q-203 0 -205 -162z" />
<glyph unicode="&#xab;" horiz-adv-x="770" d="M94 604l250 371q24 -16 31 -23q4 -4 6 -4l-234 -344q61 -90 132.5 -198.5t97.5 -145.5l-33 -22zM348 604l250 371q24 -16 31 -23q4 -4 6 -4l-238 -344q149 -220 236 -344l-35 -22z" />
<glyph unicode="&#xac;" horiz-adv-x="1236" d="M160 739v43h907v-399h-43v356h-864z" />
<glyph unicode="&#xad;" horiz-adv-x="722" d="M162 528v47h467v-47h-467z" />
<glyph unicode="&#xae;" horiz-adv-x="1699" d="M123 725q0 196 98 363.5t265.5 265.5t363.5 98t363.5 -98t265.5 -265.5t98 -363.5t-98 -363.5t-265.5 -265.5t-363.5 -98t-363.5 98t-265.5 265.5t-98 363.5zM172 725q0 -139 53.5 -264.5t144 -216t216 -144t264.5 -53.5t264.5 53.5t216 144t144 216t53.5 264.5 t-53.5 264.5t-144 216t-216 144t-264.5 53.5t-264.5 -53.5t-216 -144t-144 -216t-53.5 -264.5zM604 324v815h279q126 0 197 -65t71 -163q0 -102 -69.5 -164.5t-176.5 -70.5l252 -352h-45l-256 348h-211v-348h-41zM645 709h176q46 0 83 4t76.5 16.5t66.5 34t44 59t17 88.5 q0 95 -68.5 142t-162.5 47h-232v-391z" />
<glyph unicode="&#xaf;" horiz-adv-x="563" d="M90 1610v43h404v-43h-404z" />
<glyph unicode="&#xb0;" horiz-adv-x="663" d="M123 1253q0 86 61.5 146.5t147.5 60.5t147.5 -60.5t61.5 -146.5q0 -88 -61.5 -149.5t-147.5 -61.5t-147.5 61.5t-61.5 149.5zM166 1251q0 -72 48.5 -121t117.5 -49t117.5 49t48.5 121t-48.5 121t-117.5 49t-117.5 -49t-48.5 -121z" />
<glyph unicode="&#xb1;" horiz-adv-x="1175" d="M174 815v43h385v367h43v-367h399v-43h-399v-373h-43v373h-385zM176 229v41h821v-41h-821z" />
<glyph unicode="&#xb2;" horiz-adv-x="827" d="M133 649l402 420q58 59 82 111.5t4 113.5q-31 68 -91 103t-131 35q-61 0 -119 -27t-92 -76l-32 17q80 124 243 124q86 0 156.5 -39.5t101.5 -115.5l-2 2q29 -76 1.5 -142t-91.5 -131l-370 -389h479v-39h-529z" />
<glyph unicode="&#xb3;" horiz-adv-x="794" d="M127 754l39 14q30 -52 88 -81t121 -32q59 -4 116.5 16.5t98.5 68t41 110.5q0 99 -60 146t-155 42h-68v35h68q95 0 141 43q43 43 42 122.5t-40 125.5q-64 70 -170 70q-60 0 -116 -24.5t-89 -68.5l-28 21q49 64 129.5 92t163.5 11.5t139 -74.5q48 -48 49.5 -145.5 t-49.5 -151.5q-15 -15 -53 -35q71 -23 104 -81t33 -128q0 -76 -45.5 -132.5t-113 -81t-142.5 -20.5q-76 5 -144 40.5t-100 97.5z" />
<glyph unicode="&#xb4;" horiz-adv-x="1208" d="M580 1554l127 211h71l-147 -211h-51z" />
<glyph unicode="&#xb5;" horiz-adv-x="1054" d="M160 -432v1493h47v-672q0 -63 13 -120t42 -111t86.5 -86.5t136.5 -32.5q158 0 258.5 113.5t100.5 320.5v588h49l6 -1061h-45v281q-21 -76 -61 -132.5t-91.5 -87.5t-105.5 -46t-111 -15q-61 0 -112.5 15t-100 61.5t-69.5 120.5l2 -629h-45z" />
<glyph unicode="&#xb6;" horiz-adv-x="1140" d="M74 1018q0 81 29.5 157t85.5 138.5t147 100.5t203 38h434v-1683h-43v1646h-336v-1646h-45v837q-112 0 -204 35t-150 93.5t-89.5 131.5t-31.5 152z" />
<glyph unicode="&#xb7;" horiz-adv-x="471" d="M156 651q0 32 24 56t56 24t55.5 -24t23.5 -56t-23.5 -56t-55.5 -24t-56 24t-24 56z" />
<glyph unicode="&#xb8;" horiz-adv-x="1169" d="M358 -379l7 37q71 -37 127 -39q72 -3 110 26.5t47 73.5q11 56 -33.5 87.5t-128.5 21.5l107 192h39l-90 -159q83 0 120.5 -43.5t26.5 -108.5q-10 -55 -63 -93t-135 -34q-59 3 -134 39z" />
<glyph unicode="&#xb9;" horiz-adv-x="481" d="M86 1249l176 201h55v-836h-43v793l-157 -184z" />
<glyph unicode="&#xba;" horiz-adv-x="831" d="M137 969v262q0 70 42 121.5t104 75.5t133 24t133 -24t103.5 -75.5t41.5 -121.5v-262q0 -70 -41.5 -121.5t-103.5 -75.5t-133 -24t-133 24t-104 75.5t-42 121.5zM178 975q0 -66 37 -110t88.5 -61.5t112.5 -17.5q45 0 85.5 10.5t75 31.5t55.5 59t21 88v250q0 66 -37 110 t-88 61t-112 17t-112.5 -17t-88.5 -61t-37 -110v-250z" />
<glyph unicode="&#xbb;" horiz-adv-x="768" d="M135 260l238 344q-226 329 -236 344l35 23l250 -367l-250 -371q-24 16 -31 23q-4 4 -6 4zM385 260l238 344q-226 329 -236 344l35 23l250 -367l-250 -371z" />
<glyph unicode="&#xbc;" horiz-adv-x="1323" d="M86 1249l176 201h55v-836h-43v793l-157 -184zM133 -4l899 1474l15 -8l18 -12l-901 -1473zM633 254l469 592h51v-594h82v-35h-82v-217h-39v217h-457zM676 250l438 2v547z" />
<glyph unicode="&#xbd;" horiz-adv-x="1419" d="M80 1249l176 201h55v-836h-43v793l-157 -184zM154 -4l899 1474l14 -8l18 -12l-901 -1473zM774 33l402 409q58 58 82 111.5t4 114.5q-31 68 -91 102.5t-131 34.5q-61 0 -116.5 -26.5t-89.5 -76.5l-33 13h2l-6 4q81 125 243 125q86 0 156.5 -40t101.5 -116l-2 2 q30 -77 0.5 -149t-90.5 -123l-370 -379h479v-39h-529l-2 4z" />
<glyph unicode="&#xbe;" horiz-adv-x="1452" d="M100 766l39 14q30 -52 87.5 -80.5t121.5 -31.5q93 -7 174.5 47t81.5 147q0 99 -60 146.5t-155 42.5h-67v34h67q95 0 141 43q43 43 42 106t-40 109q-64 70 -170 70q-60 0 -115.5 -24t-88.5 -68q-18 9 -29 20q49 64 129.5 92t163.5 11.5t139 -74.5q48 -48 49.5 -129 t-49.5 -135q-15 -15 -53 -35q71 -23 104 -81t33 -128q0 -113 -91.5 -176t-209.5 -57q-77 5 -144.5 40t-99.5 97zM334 -2l897 1472l31 -20l-900 -1470zM754 254l469 592h51v-594h82v-35h-82v-217h-39v217h-457zM797 250l438 2v547z" />
<glyph unicode="&#xbf;" horiz-adv-x="913" d="M84 4q1 94 34 170t91 126.5t133 80.5t164 39q4 111 6 191.5t2.5 130t1.5 71.5h37l12 -430q-116 -7 -213.5 -53t-159 -132t-59.5 -196q1 -81 34 -146t87 -105t121 -60.5t141 -20.5q76 0 159.5 34t145.5 87l31 -31q-66 -64 -157 -102.5t-183 -38.5q-82 0 -158 25t-137 71.5 t-97.5 121.5t-35.5 167zM475 993q0 26 17.5 44t42.5 18q26 0 44.5 -18t18.5 -44t-18.5 -44.5t-44.5 -18.5q-25 0 -42.5 18.5t-17.5 44.5z" />
<glyph unicode="&#xc0;" d="M37 0l536 1450h82l537 -1450h-55l-193 518h-659l-193 -518h-55zM303 569h623l-308 832h-8zM455 1765h71l127 -211h-51z" />
<glyph unicode="&#xc1;" d="M37 0l536 1450h82l537 -1450h-55l-193 518h-659l-193 -518h-55zM303 569h623l-308 832h-8zM565 1554l127 211h72l-148 -211h-51z" />
<glyph unicode="&#xc2;" d="M37 0l536 1450h82l537 -1450h-55l-193 518h-659l-193 -518h-55zM303 569h623l-308 832h-8zM410 1546l176 193h57l176 -193h-57l-148 162l-145 -162h-59z" />
<glyph unicode="&#xc3;" d="M37 0l536 1450h82l537 -1450h-55l-193 518h-659l-193 -518h-55zM303 569h623l-308 832h-8zM401 1626q16 43 48 71.5t75 28.5q35 0 72.5 -24.5t71 -49t59.5 -24.5q31 0 49 16.5t31 49.5l33 -13q-32 -98 -113 -98q-34 0 -70 25t-70.5 50t-64.5 25q-61 0 -90 -69z" />
<glyph unicode="&#xc4;" d="M37 0l536 1450h82l537 -1450h-55l-193 518h-659l-193 -518h-55zM303 569h623l-308 832h-8zM375 1657q0 20 14.5 34.5t34.5 14.5t34.5 -14.5t14.5 -34.5t-14.5 -34.5t-34.5 -14.5t-34.5 14.5t-14.5 34.5zM743 1657q0 20 15 34.5t35 14.5t34.5 -14.5t14.5 -34.5 t-14.5 -34.5t-34.5 -14.5t-35 14.5t-15 34.5z" />
<glyph unicode="&#xc5;" d="M37 0l526 1419q-47 15 -76.5 55.5t-29.5 96.5q0 75 45.5 117.5t113.5 42.5q67 0 110.5 -48.5t43.5 -113.5q0 -49 -29 -91t-75 -59l526 -1419h-55l-193 518h-659l-193 -518h-55zM303 569h623l-308 832h-8zM504 1569q0 -47 32 -81t78 -34q47 0 80 35.5t33 81.5t-33 81.5 t-80 35.5q-48 0 -79 -32.5t-31 -86.5z" />
<glyph unicode="&#xc6;" horiz-adv-x="1579" d="M12 0l719 1450h744v-49h-623v-672h559v-49h-559v-635h623v-45h-670v518h-473l-262 -518h-58zM354 565h451v842l-41 -2z" />
<glyph unicode="&#xc7;" horiz-adv-x="1196" d="M160 385v680q0 96 44 175t117.5 128t164 75.5t188.5 26.5q143 0 265.5 -53.5t184.5 -154.5l-45 -33q-55 91 -168.5 141.5t-242.5 50.5q-86 0 -166.5 -22.5t-146 -65.5t-105 -112.5t-39.5 -155.5v-680q0 -86 39.5 -155t105 -111.5t146 -65t166.5 -22.5q129 0 241 46.5 t170 135.5l45 -23q-57 -91 -165.5 -145t-237.5 -63l-70 -123q83 0 121 -43.5t27 -108.5q-10 -55 -63.5 -93t-135.5 -34q-58 3 -133 39l6 37q71 -37 127 -39q72 -3 110.5 26.5t47.5 73.5q11 56 -33.5 87.5t-128.5 21.5l86 154h-14q-77 0 -150 16t-138 49.5t-114 81t-77.5 114 t-28.5 144.5z" />
<glyph unicode="&#xc8;" horiz-adv-x="1157" d="M190 0v1450h863v-51h-811v-649h749v-56h-749v-643h811v-51h-863zM469 1765h72l127 -211h-52z" />
<glyph unicode="&#xc9;" horiz-adv-x="1157" d="M190 0v1450h863v-51h-811v-649h749v-56h-749v-643h811v-51h-863zM580 1554l127 211h71l-147 -211h-51z" />
<glyph unicode="&#xca;" horiz-adv-x="1157" d="M190 0v1450h863v-51h-811v-649h749v-56h-749v-643h811v-51h-863zM424 1546l176 193h57l177 -193h-58l-147 162l-146 -162h-59z" />
<glyph unicode="&#xcb;" horiz-adv-x="1157" d="M190 0v1450h863v-51h-811v-649h749v-56h-749v-643h811v-51h-863zM389 1657q0 20 14.5 34.5t34.5 14.5t34.5 -14.5t14.5 -34.5t-14.5 -34.5t-34.5 -14.5t-34.5 14.5t-14.5 34.5zM758 1657q0 20 14.5 34.5t34.5 14.5t34.5 -14.5t14.5 -34.5t-14.5 -34.5t-34.5 -14.5 t-34.5 14.5t-14.5 34.5z" />
<glyph unicode="&#xcc;" horiz-adv-x="432" d="M57 1765h72l127 -211h-51zM190 0v1450h52v-1450h-52z" />
<glyph unicode="&#xcd;" horiz-adv-x="432" d="M168 1554l127 211h72l-148 -211h-51zM190 0v1450h52v-1450h-52z" />
<glyph unicode="&#xce;" horiz-adv-x="432" d="M12 1546l176 193h58l176 -193h-57l-148 162l-145 -162h-60zM190 0v1450h52v-1450h-52z" />
<glyph unicode="&#xcf;" horiz-adv-x="432" d="M31 1657q0 20 14.5 34.5t34.5 14.5t34.5 -14.5t14.5 -34.5t-14.5 -34.5t-34.5 -14.5t-34.5 14.5t-14.5 34.5zM190 0v1450h52v-1450h-52zM297 1657q0 20 14.5 34.5t34.5 14.5t34.5 -14.5t14.5 -34.5t-14.5 -34.5t-34.5 -14.5t-34.5 14.5t-14.5 34.5z" />
<glyph unicode="&#xd0;" horiz-adv-x="1308" d="M63 700v41h130v709h448q97 0 186.5 -26t162 -75.5t116 -129.5t43.5 -179v-632q0 -98 -43.5 -177.5t-116 -129t-162 -75.5t-186.5 -26h-448v700h-130zM244 51h397q118 0 219.5 38t169.5 121t68 198v632q0 70 -26 130t-69.5 101.5t-102.5 70.5t-124.5 43t-134.5 14h-397 v-658h297v-41h-297v-649z" />
<glyph unicode="&#xd1;" horiz-adv-x="1374" d="M190 0v1450h80l863 -1401v1401h51v-1450h-88l-850 1384l-2 -1384h-54zM487 1626q16 43 48 71.5t75 28.5q35 0 72.5 -24.5t71 -49t59.5 -24.5q31 0 49 16.5t31 49.5l33 -13q-32 -98 -113 -98q-34 0 -70 25t-70.5 50t-64.5 25q-61 0 -90 -69z" />
<glyph unicode="&#xd2;" horiz-adv-x="1396" d="M158 391v670q0 98 46 178t122.5 129t171.5 75.5t198 26.5q82 0 160 -16t147 -50t121 -81.5t82.5 -115t30.5 -146.5v-670q0 -98 -46 -178t-123.5 -130t-173 -76.5t-198.5 -26.5t-198 26.5t-171.5 76.5t-122.5 130t-46 178zM209 391q0 -116 71.5 -199.5t179.5 -122 t236 -38.5q94 0 180 23t156 66t112 113.5t42 157.5v670q0 92 -42 163t-113 113t-156.5 63t-180.5 21q-95 -1 -179.5 -22.5t-154 -64t-110.5 -113t-41 -160.5v-670zM535 1763h71l127 -211h-51z" />
<glyph unicode="&#xd3;" horiz-adv-x="1396" d="M158 391v670q0 98 46 178t122.5 129t171.5 75.5t198 26.5q82 0 160 -16t147 -50t121 -81.5t82.5 -115t30.5 -146.5v-670q0 -98 -46 -178t-123.5 -130t-173 -76.5t-198.5 -26.5t-198 26.5t-171.5 76.5t-122.5 130t-46 178zM209 391q0 -116 71.5 -199.5t179.5 -122 t236 -38.5q94 0 180 23t156 66t112 113.5t42 157.5v670q0 92 -42 163t-113 113t-156.5 63t-180.5 21q-95 -1 -179.5 -22.5t-154 -64t-110.5 -113t-41 -160.5v-670zM645 1552l127 211h72l-148 -211h-51z" />
<glyph unicode="&#xd4;" horiz-adv-x="1396" d="M158 391v670q0 98 46 178t122.5 129t171.5 75.5t198 26.5q82 0 160 -16t147 -50t121 -81.5t82.5 -115t30.5 -146.5v-670q0 -98 -46 -178t-123.5 -130t-173 -76.5t-198.5 -26.5t-198 26.5t-171.5 76.5t-122.5 130t-46 178zM209 391q0 -116 71.5 -199.5t179.5 -122 t236 -38.5q94 0 180 23t156 66t112 113.5t42 157.5v670q0 92 -42 163t-113 113t-156.5 63t-180.5 21q-95 -1 -179.5 -22.5t-154 -64t-110.5 -113t-41 -160.5v-670zM489 1544l177 193h57l176 -193h-57l-148 162l-145 -162h-60z" />
<glyph unicode="&#xd5;" horiz-adv-x="1396" d="M158 391v670q0 98 46 178t122.5 129t171.5 75.5t198 26.5q82 0 160 -16t147 -50t121 -81.5t82.5 -115t30.5 -146.5v-670q0 -98 -46 -178t-123.5 -130t-173 -76.5t-198.5 -26.5t-198 26.5t-171.5 76.5t-122.5 130t-46 178zM209 391q0 -116 71.5 -199.5t179.5 -122 t236 -38.5q94 0 180 23t156 66t112 113.5t42 157.5v670q0 92 -42 163t-113 113t-156.5 63t-180.5 21q-95 -1 -179.5 -22.5t-154 -64t-110.5 -113t-41 -160.5v-670zM481 1624q16 43 48 71.5t75 28.5q35 0 72.5 -24.5t71 -49t59.5 -24.5q31 0 49 16.5t31 49.5l33 -13 q-32 -98 -113 -98q-34 0 -70 25t-70.5 50t-64.5 25q-61 0 -90 -69z" />
<glyph unicode="&#xd6;" horiz-adv-x="1396" d="M158 391v670q0 98 46 178t122.5 129t171.5 75.5t198 26.5q82 0 160 -16t147 -50t121 -81.5t82.5 -115t30.5 -146.5v-670q0 -98 -46 -178t-123.5 -130t-173 -76.5t-198.5 -26.5t-198 26.5t-171.5 76.5t-122.5 130t-46 178zM209 391q0 -116 71.5 -199.5t179.5 -122 t236 -38.5q94 0 180 23t156 66t112 113.5t42 157.5v670q0 92 -42 163t-113 113t-156.5 63t-180.5 21q-95 -1 -179.5 -22.5t-154 -64t-110.5 -113t-41 -160.5v-670zM455 1655q0 20 14.5 34.5t34.5 14.5t34.5 -14.5t14.5 -34.5t-14.5 -34.5t-34.5 -14.5t-34.5 14.5t-14.5 34.5 zM823 1655q0 20 14.5 34.5t34.5 14.5t35 -14.5t15 -34.5t-15 -34.5t-35 -14.5t-34.5 14.5t-14.5 34.5z" />
<glyph unicode="&#xd7;" horiz-adv-x="1011" d="M139 1026l35 33l334 -334l326 326l34 -33l-327 -326l321 -321l-33 -35l-321 321l-330 -329l-33 34l328 328z" />
<glyph unicode="&#xd8;" horiz-adv-x="1394" d="M158 408v636q0 98 46 178t122.5 129.5t171.5 76t198 26.5q138 0 252 -43l60 145l39 -14l-60 -145q114 -59 182 -149t68 -204v-636q0 -79 -30.5 -147t-82.5 -116t-121 -82t-147 -50.5t-160 -16.5q-98 0 -245 43l-62 -152l-39 11l60 155q-117 59 -184.5 148t-67.5 207z M207 408q0 -186 223 -312l500 1274q-45 17 -91.5 25.5t-69 9t-75.5 0.5q-95 -1 -180 -23t-154.5 -64t-111 -113t-41.5 -161v-636zM469 84q139 -39 227 -39q93 0 179.5 23t157 67t113.5 115t44 158v636q0 185 -221 310z" />
<glyph unicode="&#xd9;" horiz-adv-x="1378" d="M180 397v1053h51v-1053q0 -89 39 -161t104 -116t145.5 -67.5t168.5 -23.5q69 0 135 14.5t125 44.5t103 73t70 103.5t26 132.5v1053h51v-1053q0 -100 -43.5 -181t-116.5 -131.5t-163 -77.5t-187 -27t-187 27t-162 77.5t-115.5 131.5t-43.5 181zM530 1765h72l127 -211h-51z " />
<glyph unicode="&#xda;" horiz-adv-x="1378" d="M180 397v1053h51v-1053q0 -89 39 -161t104 -116t145.5 -67.5t168.5 -23.5q69 0 135 14.5t125 44.5t103 73t70 103.5t26 132.5v1053h51v-1053q0 -100 -43.5 -181t-116.5 -131.5t-163 -77.5t-187 -27t-187 27t-162 77.5t-115.5 131.5t-43.5 181zM641 1554l127 211h72 l-148 -211h-51z" />
<glyph unicode="&#xdb;" horiz-adv-x="1378" d="M180 397v1053h51v-1053q0 -89 39 -161t104 -116t145.5 -67.5t168.5 -23.5q69 0 135 14.5t125 44.5t103 73t70 103.5t26 132.5v1053h51v-1053q0 -100 -43.5 -181t-116.5 -131.5t-163 -77.5t-187 -27t-187 27t-162 77.5t-115.5 131.5t-43.5 181zM485 1546l177 193h57 l176 -193h-57l-148 162l-145 -162h-60z" />
<glyph unicode="&#xdc;" horiz-adv-x="1378" d="M180 397v1053h51v-1053q0 -89 39 -161t104 -116t145.5 -67.5t168.5 -23.5q69 0 135 14.5t125 44.5t103 73t70 103.5t26 132.5v1053h51v-1053q0 -100 -43.5 -181t-116.5 -131.5t-163 -77.5t-187 -27t-187 27t-162 77.5t-115.5 131.5t-43.5 181zM451 1657q0 20 14.5 34.5 t34.5 14.5t34.5 -14.5t14.5 -34.5t-14.5 -34.5t-34.5 -14.5t-34.5 14.5t-14.5 34.5zM819 1657q0 20 14.5 34.5t34.5 14.5t35 -14.5t15 -34.5t-15 -34.5t-35 -14.5t-34.5 14.5t-14.5 34.5z" />
<glyph unicode="&#xdd;" horiz-adv-x="1126" d="M39 1450h61l461 -817l475 817h64l-514 -875v-575h-51v575zM512 1554l127 211h72l-148 -211h-51z" />
<glyph unicode="&#xde;" horiz-adv-x="1236" d="M190 0v1450h52v-246h460q106 0 193 -38.5t141 -102t82.5 -140.5t28.5 -159q0 -81 -28.5 -156.5t-81.5 -137.5t-139 -99.5t-193 -38.5h-463v-332h-52zM242 383h460q96 0 173 33t124 88t72 122.5t25 139.5q0 73 -25.5 141.5t-73 124.5t-124 90t-171.5 35h-460v-774z" />
<glyph unicode="&#xdf;" horiz-adv-x="1189" d="M168 0v1112q0 83 36 152t96 113.5t135 68.5t155 24q109 0 203.5 -37.5t157.5 -118.5t63 -190q0 -249 -211 -327q278 -85 278 -373q0 -98 -43.5 -180.5t-115 -135.5t-161 -81.5t-183.5 -26.5q-103 3 -211 49l2 53q118 -46 206 -49q85 -2 166 23.5t145 72t103 119t39 158.5 q0 171 -110.5 257.5t-288.5 84.5h-238v45h238q92 0 166.5 33.5t121 105.5t46.5 172q0 78 -32.5 137.5t-87 93.5t-118.5 51t-135 17q-68 0 -134 -21t-119.5 -59.5t-86.5 -98.5t-33 -132v-1112h-49z" />
<glyph unicode="&#xe0;" d="M37 0l536 1450h82l537 -1450h-55l-193 518h-659l-193 -518h-55zM303 569h623l-308 832h-8zM455 1765h71l127 -211h-51z" />
<glyph unicode="&#xe1;" d="M37 0l536 1450h82l537 -1450h-55l-193 518h-659l-193 -518h-55zM303 569h623l-308 832h-8zM565 1554l127 211h72l-148 -211h-51z" />
<glyph unicode="&#xe2;" d="M37 0l536 1450h82l537 -1450h-55l-193 518h-659l-193 -518h-55zM303 569h623l-308 832h-8zM410 1546l176 193h57l176 -193h-57l-148 162l-145 -162h-59z" />
<glyph unicode="&#xe3;" d="M37 0l536 1450h82l537 -1450h-55l-193 518h-659l-193 -518h-55zM303 569h623l-308 832h-8zM401 1626q16 43 48 71.5t75 28.5q35 0 72.5 -24.5t71 -49t59.5 -24.5q31 0 49 16.5t31 49.5l33 -13q-32 -98 -113 -98q-34 0 -70 25t-70.5 50t-64.5 25q-61 0 -90 -69z" />
<glyph unicode="&#xe4;" d="M37 0l536 1450h82l537 -1450h-55l-193 518h-659l-193 -518h-55zM303 569h623l-308 832h-8zM375 1657q0 20 14.5 34.5t34.5 14.5t34.5 -14.5t14.5 -34.5t-14.5 -34.5t-34.5 -14.5t-34.5 14.5t-14.5 34.5zM743 1657q0 20 15 34.5t35 14.5t34.5 -14.5t14.5 -34.5 t-14.5 -34.5t-34.5 -14.5t-35 14.5t-15 34.5z" />
<glyph unicode="&#xe5;" d="M37 0l526 1419q-47 15 -76.5 55.5t-29.5 96.5q0 75 45.5 117.5t113.5 42.5q67 0 110.5 -48.5t43.5 -113.5q0 -49 -29 -91t-75 -59l526 -1419h-55l-193 518h-659l-193 -518h-55zM303 569h623l-308 832h-8zM504 1569q0 -47 32 -81t78 -34q47 0 80 35.5t33 81.5t-33 81.5 t-80 35.5q-48 0 -79 -32.5t-31 -86.5z" />
<glyph unicode="&#xe6;" horiz-adv-x="1579" d="M12 0l719 1450h744v-49h-623v-672h559v-49h-559v-635h623v-45h-670v518h-473l-262 -518h-58zM354 565h451v842l-41 -2z" />
<glyph unicode="&#xe7;" horiz-adv-x="1196" d="M160 385v680q0 96 44 175t117.5 128t164 75.5t188.5 26.5q143 0 265.5 -53.5t184.5 -154.5l-45 -33q-55 91 -168.5 141.5t-242.5 50.5q-86 0 -166.5 -22.5t-146 -65.5t-105 -112.5t-39.5 -155.5v-680q0 -86 39.5 -155t105 -111.5t146 -65t166.5 -22.5q129 0 241 46.5 t170 135.5l45 -23q-57 -91 -165.5 -145t-237.5 -63l-70 -123q83 0 121 -43.5t27 -108.5q-10 -55 -63.5 -93t-135.5 -34q-58 3 -133 39l6 37q71 -37 127 -39q72 -3 110.5 26.5t47.5 73.5q11 56 -33.5 87.5t-128.5 21.5l86 154h-14q-77 0 -150 16t-138 49.5t-114 81t-77.5 114 t-28.5 144.5z" />
<glyph unicode="&#xe8;" horiz-adv-x="1157" d="M190 0v1450h863v-51h-811v-649h749v-56h-749v-643h811v-51h-863zM469 1765h72l127 -211h-52z" />
<glyph unicode="&#xe9;" horiz-adv-x="1157" d="M190 0v1450h863v-51h-811v-649h749v-56h-749v-643h811v-51h-863zM580 1554l127 211h71l-147 -211h-51z" />
<glyph unicode="&#xea;" horiz-adv-x="1157" d="M190 0v1450h863v-51h-811v-649h749v-56h-749v-643h811v-51h-863zM424 1546l176 193h57l177 -193h-58l-147 162l-146 -162h-59z" />
<glyph unicode="&#xeb;" horiz-adv-x="1157" d="M190 0v1450h863v-51h-811v-649h749v-56h-749v-643h811v-51h-863zM389 1657q0 20 14.5 34.5t34.5 14.5t34.5 -14.5t14.5 -34.5t-14.5 -34.5t-34.5 -14.5t-34.5 14.5t-14.5 34.5zM758 1657q0 20 14.5 34.5t34.5 14.5t34.5 -14.5t14.5 -34.5t-14.5 -34.5t-34.5 -14.5 t-34.5 14.5t-14.5 34.5z" />
<glyph unicode="&#xec;" horiz-adv-x="432" d="M57 1765h72l127 -211h-51zM190 0v1450h52v-1450h-52z" />
<glyph unicode="&#xed;" horiz-adv-x="432" d="M168 1554l127 211h72l-148 -211h-51zM190 0v1450h52v-1450h-52z" />
<glyph unicode="&#xee;" horiz-adv-x="432" d="M12 1546l176 193h58l176 -193h-57l-148 162l-145 -162h-60zM190 0v1450h52v-1450h-52z" />
<glyph unicode="&#xef;" horiz-adv-x="432" d="M31 1657q0 20 14.5 34.5t34.5 14.5t34.5 -14.5t14.5 -34.5t-14.5 -34.5t-34.5 -14.5t-34.5 14.5t-14.5 34.5zM190 0v1450h52v-1450h-52zM297 1657q0 20 14.5 34.5t34.5 14.5t34.5 -14.5t14.5 -34.5t-14.5 -34.5t-34.5 -14.5t-34.5 14.5t-14.5 34.5z" />
<glyph unicode="&#xf0;" horiz-adv-x="1308" d="M63 700v41h130v709h448q97 0 186.5 -26t162 -75.5t116 -129.5t43.5 -179v-632q0 -98 -43.5 -177.5t-116 -129t-162 -75.5t-186.5 -26h-448v700h-130zM244 51h397q118 0 219.5 38t169.5 121t68 198v632q0 70 -26 130t-69.5 101.5t-102.5 70.5t-124.5 43t-134.5 14h-397 v-658h297v-41h-297v-649z" />
<glyph unicode="&#xf1;" horiz-adv-x="1374" d="M190 0v1450h80l863 -1401v1401h51v-1450h-88l-850 1384l-2 -1384h-54zM487 1626q16 43 48 71.5t75 28.5q35 0 72.5 -24.5t71 -49t59.5 -24.5q31 0 49 16.5t31 49.5l33 -13q-32 -98 -113 -98q-34 0 -70 25t-70.5 50t-64.5 25q-61 0 -90 -69z" />
<glyph unicode="&#xf2;" horiz-adv-x="1396" d="M158 391v670q0 98 46 178t122.5 129t171.5 75.5t198 26.5q82 0 160 -16t147 -50t121 -81.5t82.5 -115t30.5 -146.5v-670q0 -98 -46 -178t-123.5 -130t-173 -76.5t-198.5 -26.5t-198 26.5t-171.5 76.5t-122.5 130t-46 178zM209 391q0 -116 71.5 -199.5t179.5 -122 t236 -38.5q94 0 180 23t156 66t112 113.5t42 157.5v670q0 92 -42 163t-113 113t-156.5 63t-180.5 21q-95 -1 -179.5 -22.5t-154 -64t-110.5 -113t-41 -160.5v-670zM535 1763h71l127 -211h-51z" />
<glyph unicode="&#xf3;" horiz-adv-x="1396" d="M158 391v670q0 98 46 178t122.5 129t171.5 75.5t198 26.5q82 0 160 -16t147 -50t121 -81.5t82.5 -115t30.5 -146.5v-670q0 -98 -46 -178t-123.5 -130t-173 -76.5t-198.5 -26.5t-198 26.5t-171.5 76.5t-122.5 130t-46 178zM209 391q0 -116 71.5 -199.5t179.5 -122 t236 -38.5q94 0 180 23t156 66t112 113.5t42 157.5v670q0 92 -42 163t-113 113t-156.5 63t-180.5 21q-95 -1 -179.5 -22.5t-154 -64t-110.5 -113t-41 -160.5v-670zM645 1552l127 211h72l-148 -211h-51z" />
<glyph unicode="&#xf4;" horiz-adv-x="1396" d="M158 391v670q0 98 46 178t122.5 129t171.5 75.5t198 26.5q82 0 160 -16t147 -50t121 -81.5t82.5 -115t30.5 -146.5v-670q0 -98 -46 -178t-123.5 -130t-173 -76.5t-198.5 -26.5t-198 26.5t-171.5 76.5t-122.5 130t-46 178zM209 391q0 -116 71.5 -199.5t179.5 -122 t236 -38.5q94 0 180 23t156 66t112 113.5t42 157.5v670q0 92 -42 163t-113 113t-156.5 63t-180.5 21q-95 -1 -179.5 -22.5t-154 -64t-110.5 -113t-41 -160.5v-670zM489 1544l177 193h57l176 -193h-57l-148 162l-145 -162h-60z" />
<glyph unicode="&#xf5;" horiz-adv-x="1396" d="M158 391v670q0 98 46 178t122.5 129t171.5 75.5t198 26.5q82 0 160 -16t147 -50t121 -81.5t82.5 -115t30.5 -146.5v-670q0 -98 -46 -178t-123.5 -130t-173 -76.5t-198.5 -26.5t-198 26.5t-171.5 76.5t-122.5 130t-46 178zM209 391q0 -116 71.5 -199.5t179.5 -122 t236 -38.5q94 0 180 23t156 66t112 113.5t42 157.5v670q0 92 -42 163t-113 113t-156.5 63t-180.5 21q-95 -1 -179.5 -22.5t-154 -64t-110.5 -113t-41 -160.5v-670zM481 1624q16 43 48 71.5t75 28.5q35 0 72.5 -24.5t71 -49t59.5 -24.5q31 0 49 16.5t31 49.5l33 -13 q-32 -98 -113 -98q-34 0 -70 25t-70.5 50t-64.5 25q-61 0 -90 -69z" />
<glyph unicode="&#xf6;" horiz-adv-x="1396" d="M158 391v670q0 98 46 178t122.5 129t171.5 75.5t198 26.5q82 0 160 -16t147 -50t121 -81.5t82.5 -115t30.5 -146.5v-670q0 -98 -46 -178t-123.5 -130t-173 -76.5t-198.5 -26.5t-198 26.5t-171.5 76.5t-122.5 130t-46 178zM209 391q0 -116 71.5 -199.5t179.5 -122 t236 -38.5q94 0 180 23t156 66t112 113.5t42 157.5v670q0 92 -42 163t-113 113t-156.5 63t-180.5 21q-95 -1 -179.5 -22.5t-154 -64t-110.5 -113t-41 -160.5v-670zM455 1655q0 20 14.5 34.5t34.5 14.5t34.5 -14.5t14.5 -34.5t-14.5 -34.5t-34.5 -14.5t-34.5 14.5t-14.5 34.5 zM823 1655q0 20 14.5 34.5t34.5 14.5t35 -14.5t15 -34.5t-15 -34.5t-35 -14.5t-34.5 14.5t-14.5 34.5z" />
<glyph unicode="&#xf7;" horiz-adv-x="1011" d="M139 1026l35 33l334 -334l326 326l34 -33l-327 -326l321 -321l-33 -35l-321 321l-330 -329l-33 34l328 328z" />
<glyph unicode="&#xf8;" horiz-adv-x="1394" d="M158 408v636q0 98 46 178t122.5 129.5t171.5 76t198 26.5q138 0 252 -43l60 145l39 -14l-60 -145q114 -59 182 -149t68 -204v-636q0 -79 -30.5 -147t-82.5 -116t-121 -82t-147 -50.5t-160 -16.5q-98 0 -245 43l-62 -152l-39 11l60 155q-117 59 -184.5 148t-67.5 207z M207 408q0 -186 223 -312l500 1274q-45 17 -91.5 25.5t-69 9t-75.5 0.5q-95 -1 -180 -23t-154.5 -64t-111 -113t-41.5 -161v-636zM469 84q139 -39 227 -39q93 0 179.5 23t157 67t113.5 115t44 158v636q0 185 -221 310z" />
<glyph unicode="&#xf9;" horiz-adv-x="1378" d="M180 397v1053h51v-1053q0 -89 39 -161t104 -116t145.5 -67.5t168.5 -23.5q69 0 135 14.5t125 44.5t103 73t70 103.5t26 132.5v1053h51v-1053q0 -100 -43.5 -181t-116.5 -131.5t-163 -77.5t-187 -27t-187 27t-162 77.5t-115.5 131.5t-43.5 181zM530 1765h72l127 -211h-51z " />
<glyph unicode="&#xfa;" horiz-adv-x="1378" d="M180 397v1053h51v-1053q0 -89 39 -161t104 -116t145.5 -67.5t168.5 -23.5q69 0 135 14.5t125 44.5t103 73t70 103.5t26 132.5v1053h51v-1053q0 -100 -43.5 -181t-116.5 -131.5t-163 -77.5t-187 -27t-187 27t-162 77.5t-115.5 131.5t-43.5 181zM641 1554l127 211h72 l-148 -211h-51z" />
<glyph unicode="&#xfb;" horiz-adv-x="1378" d="M180 397v1053h51v-1053q0 -89 39 -161t104 -116t145.5 -67.5t168.5 -23.5q69 0 135 14.5t125 44.5t103 73t70 103.5t26 132.5v1053h51v-1053q0 -100 -43.5 -181t-116.5 -131.5t-163 -77.5t-187 -27t-187 27t-162 77.5t-115.5 131.5t-43.5 181zM485 1546l177 193h57 l176 -193h-57l-148 162l-145 -162h-60z" />
<glyph unicode="&#xfc;" horiz-adv-x="1378" d="M180 397v1053h51v-1053q0 -89 39 -161t104 -116t145.5 -67.5t168.5 -23.5q69 0 135 14.5t125 44.5t103 73t70 103.5t26 132.5v1053h51v-1053q0 -100 -43.5 -181t-116.5 -131.5t-163 -77.5t-187 -27t-187 27t-162 77.5t-115.5 131.5t-43.5 181zM451 1657q0 20 14.5 34.5 t34.5 14.5t34.5 -14.5t14.5 -34.5t-14.5 -34.5t-34.5 -14.5t-34.5 14.5t-14.5 34.5zM819 1657q0 20 14.5 34.5t34.5 14.5t35 -14.5t15 -34.5t-15 -34.5t-35 -14.5t-34.5 14.5t-14.5 34.5z" />
<glyph unicode="&#xfd;" horiz-adv-x="1126" d="M39 1450h61l461 -817l475 817h64l-514 -875v-575h-51v575zM512 1554l127 211h72l-148 -211h-51z" />
<glyph unicode="&#xfe;" horiz-adv-x="1236" d="M190 0v1450h52v-246h460q106 0 193 -38.5t141 -102t82.5 -140.5t28.5 -159q0 -81 -28.5 -156.5t-81.5 -137.5t-139 -99.5t-193 -38.5h-463v-332h-52zM242 383h460q96 0 173 33t124 88t72 122.5t25 139.5q0 73 -25.5 141.5t-73 124.5t-124 90t-171.5 35h-460v-774z" />
<glyph unicode="&#xff;" horiz-adv-x="1126" d="M39 1450h61l461 -817l475 817h64l-514 -875v-575h-51v575zM322 1657q0 20 14.5 34.5t34.5 14.5t34.5 -14.5t14.5 -34.5t-14.5 -34.5t-34.5 -14.5t-34.5 14.5t-14.5 34.5zM690 1657q0 20 14.5 34.5t34.5 14.5t34.5 -14.5t14.5 -34.5t-14.5 -34.5t-34.5 -14.5t-34.5 14.5 t-14.5 34.5z" />
<glyph unicode="&#x152;" horiz-adv-x="1902" d="M147 420v618q0 79 30 146.5t81.5 115.5t119.5 82.5t145.5 51.5t158.5 18q68 0 156.5 -27t162.5 -77v102h797v-47h-747v-655h684v-50h-684v-649h747v-49h-797v90q-201 -105 -329 -102q-100 2 -193.5 32.5t-167.5 84.5t-119 136.5t-45 178.5zM199 420q0 -88 41.5 -161.5 t110 -120.5t155 -73t178.5 -26q128 0 317 100v1174q-174 91 -317 88q-94 0 -179 -22t-154.5 -65t-110.5 -114.5t-41 -161.5v-618z" />
<glyph unicode="&#x153;" horiz-adv-x="1902" d="M147 420v618q0 79 30 146.5t81.5 115.5t119.5 82.5t145.5 51.5t158.5 18q68 0 156.5 -27t162.5 -77v102h797v-47h-747v-655h684v-50h-684v-649h747v-49h-797v90q-201 -105 -329 -102q-100 2 -193.5 32.5t-167.5 84.5t-119 136.5t-45 178.5zM199 420q0 -88 41.5 -161.5 t110 -120.5t155 -73t178.5 -26q128 0 317 100v1174q-174 91 -317 88q-94 0 -179 -22t-154.5 -65t-110.5 -114.5t-41 -161.5v-618z" />
<glyph unicode="&#x178;" horiz-adv-x="1126" d="M39 1450h61l461 -817l475 817h64l-514 -875v-575h-51v575zM322 1657q0 20 14.5 34.5t34.5 14.5t34.5 -14.5t14.5 -34.5t-14.5 -34.5t-34.5 -14.5t-34.5 14.5t-14.5 34.5zM690 1657q0 20 14.5 34.5t34.5 14.5t34.5 -14.5t14.5 -34.5t-14.5 -34.5t-34.5 -14.5t-34.5 14.5 t-14.5 34.5z" />
<glyph unicode="&#x192;" horiz-adv-x="839" d="M10 -260l8 49q20 0 39 2.5t45.5 13.5t47.5 28.5t40.5 51t28.5 78.5l148 819h-228l11 41h227l76 406v-2q52 243 252 243q45 0 100 -20l-19 -43q-52 18 -81 18q-86 0 -137 -56.5t-64 -137.5l-74 -408h232l-9 -41h-233l-152 -817q-30 -118 -88 -171.5t-170 -53.5z" />
<glyph unicode="&#x2c6;" horiz-adv-x="573" d="M84 1546l176 193h57l177 -193h-58l-147 162l-146 -162h-59z" />
<glyph unicode="&#x2da;" horiz-adv-x="489" d="M55 1700q0 75 46 117.5t114 42.5q67 0 110.5 -48.5t43.5 -113.5q0 -62 -46 -110t-108 -48q-67 0 -113.5 44.5t-46.5 115.5zM102 1698q0 -47 32.5 -81t78.5 -34q47 0 80 35.5t33 81.5t-33 81.5t-80 35.5q-48 0 -79.5 -32.5t-31.5 -86.5z" />
<glyph unicode="&#x2dc;" horiz-adv-x="555" d="M92 1626q16 43 48 71.5t75 28.5q35 0 72.5 -24.5t71 -49t59.5 -24.5q31 0 49 16.5t31 49.5l32 -13q-32 -98 -112 -98q-34 0 -70 25t-70.5 50t-64.5 25q-61 0 -90 -69z" />
<glyph unicode="&#x3a9;" horiz-adv-x="1568" d="M113 33v43h397l-74 61q-134 109 -216.5 272t-82.5 365q0 147 52 273.5t141 212.5t209.5 135t255.5 49q184 0 331 -91.5t225.5 -242t78.5 -328.5q0 -212 -102 -398t-261 -308h389v-45h-493v24q176 106 295.5 307.5t119.5 419.5q0 88 -24.5 175.5t-74.5 166.5t-118 140 t-163 97t-203 36q-129 0 -241.5 -47.5t-192 -130.5t-125.5 -199t-46 -248q0 -118 32.5 -226t91.5 -196.5t132 -160t164 -132.5v-24h-497z" />
<glyph unicode="&#x3c0;" horiz-adv-x="1112" d="M53 1020q83 33 226 33h759l-2 -43h-166v-793v-44t1.5 -36.5t4.5 -32t8 -24t13.5 -20t20.5 -12.5t28 -9t37 -2l2 -39q-104 0 -132 39.5t-28 179.5v793h-495v-996h-43v996q-41 0 -70.5 -1t-55 -5t-34.5 -5.5t-35.5 -8.5t-32.5 -9z" />
<glyph unicode="&#x401;" horiz-adv-x="1157" d="M190 0v1450h863v-51h-811v-649h749v-56h-749v-643h811v-51h-863zM389 1657q0 20 14.5 34.5t34.5 14.5t34.5 -14.5t14.5 -34.5t-14.5 -34.5t-34.5 -14.5t-34.5 14.5t-14.5 34.5zM758 1657q0 20 14.5 34.5t34.5 14.5t34.5 -14.5t14.5 -34.5t-14.5 -34.5t-34.5 -14.5 t-34.5 14.5t-14.5 34.5z" />
<glyph unicode="&#x410;" d="M37 0l536 1450h82l537 -1450h-55l-193 518h-659l-193 -518h-55zM303 569h623l-308 832h-8z" />
<glyph unicode="&#x411;" horiz-adv-x="1267" d="M190 0v1450h879v-47h-827v-598h495q217 0 326 -103.5t106 -314.5q-1 -109 -35.5 -186t-97.5 -120t-140 -62t-177 -19h-529zM242 49h479q185 -3 291 78.5t106 261.5q0 367 -397 367h-479v-707z" />
<glyph unicode="&#x412;" horiz-adv-x="1284" d="M190 0v1450h531q166 0 272.5 -93t106.5 -259q0 -96 -36.5 -173t-109.5 -120l-63 -35l72 -25q57 -24 99.5 -65.5t65 -91.5t32.5 -99.5t9 -101.5q-2 -109 -36.5 -186t-97 -120t-140 -62t-176.5 -19h-529zM242 49h479q185 -3 291 78.5t106 261.5q0 357 -397 354h-479v-694z M242 793h479q150 0 240 76t90 227q0 147 -93 227t-237 80h-479v-610z" />
<glyph unicode="&#x413;" horiz-adv-x="1054" d="M190 0v1450h820v-51h-768v-1399h-52z" />
<glyph unicode="&#x414;" horiz-adv-x="1386" d="M23 53h51q59 8 104.5 39.5t78.5 92t55.5 131.5t39 180.5t27 214t20.5 256.5l33 483h739v-1397h138v-375h-54v322h-1179v-322h-53v375zM190 53h928v1344h-637l-35 -533q-26 -385 -88.5 -578.5t-167.5 -232.5z" />
<glyph unicode="&#x415;" horiz-adv-x="1157" d="M190 0v1450h863v-51h-811v-649h749v-56h-749v-643h811v-51h-863z" />
<glyph unicode="&#x416;" horiz-adv-x="1767" d="M37 1450l78 -2l743 -836v838h51v-838l744 836l78 2l-621 -688l598 -762h-70l-565 721l-164 -182v-539h-51v539l-164 182l-565 -721h-70l598 762z" />
<glyph unicode="&#x417;" horiz-adv-x="1091" d="M68 188l43 27q144 -186 415 -186q181 -3 289.5 87.5t108.5 272.5q0 184 -104 271.5t-294 87.5h-178v43h178q149 0 239.5 77t90.5 228q0 160 -92 243.5t-238 83.5q-114 0 -206.5 -37t-147.5 -114l-41 20q119 178 395 178q168 0 273.5 -96t105.5 -276q0 -117 -46 -190 t-177 -138q78 -25 133.5 -58.5t86.5 -68t48 -80t21.5 -84.5t3.5 -92q-2 -109 -37 -189t-97 -127t-140.5 -69t-176.5 -22q-308 0 -456 208z" />
<glyph unicode="&#x418;" horiz-adv-x="1406" d="M190 0v1450h52v-1260l-2 -141h2l88 135l817 1266h70v-1450h-52v1276l2 108h-2l-73 -110l-822 -1274h-80z" />
<glyph unicode="&#x419;" horiz-adv-x="1406" d="M190 0v1450h52v-1223l-2 -178h2l106 164l797 1237h72v-1450h-52v1278l2 106h-2l-69 -106l-826 -1278h-80zM401 1886h52q22 -99 84.5 -158t169.5 -59t169.5 59t84.5 158h51q-19 -119 -100 -193.5t-205 -74.5t-205.5 74.5t-100.5 193.5z" />
<glyph unicode="&#x41a;" horiz-adv-x="1210" d="M190 0v1450h52v-881l858 881h65l-669 -698l669 -752h-59l-647 715l-217 -217v-498h-52z" />
<glyph unicode="&#x41b;" horiz-adv-x="1351" d="M12 0v51q60 0 110 23.5t85.5 62t64 99.5t46.5 123t32 146t21 156t14 164l45 625h731v-1450h-51v1399h-633l-41 -578q-7 -101 -13 -165.5t-20.5 -160.5t-32.5 -157t-50 -131.5t-73 -111t-101 -68t-134 -27.5z" />
<glyph unicode="&#x41c;" horiz-adv-x="1632" d="M190 0v1450h109l518 -1174l516 1174h109v-1450h-51v1413h-19l-520 -1184h-70l-522 1170l-18 -2v-1397h-52z" />
<glyph unicode="&#x41d;" horiz-adv-x="1398" d="M190 0v1450h52v-700h915v700h51v-1450h-51v698h-915v-698h-52z" />
<glyph unicode="&#x41e;" horiz-adv-x="1396" d="M158 391v670q0 98 46 178t122.5 129t171.5 75.5t198 26.5q82 0 160 -16t147 -50t121 -81.5t82.5 -115t30.5 -146.5v-670q0 -98 -46 -178t-123.5 -130t-173 -76.5t-198.5 -26.5t-198 26.5t-171.5 76.5t-122.5 130t-46 178zM209 391q0 -116 71.5 -199.5t179.5 -122 t236 -38.5q94 0 180 23t156 66t112 113.5t42 157.5v670q0 92 -42 163t-113 113t-156.5 63t-180.5 21q-95 -1 -179.5 -22.5t-154 -64t-110.5 -113t-41 -160.5v-670z" />
<glyph unicode="&#x41f;" horiz-adv-x="1382" d="M190 0v1450h1002v-1450h-51v1399h-899v-1399h-52z" />
<glyph unicode="&#x420;" horiz-adv-x="1232" d="M190 0v1450h512q107 -1 193.5 -40t140.5 -102t82.5 -139.5t28.5 -158.5q0 -81 -28.5 -156.5t-81.5 -137.5t-139 -99.5t-193 -38.5h-463v-578h-52zM242 629h460q96 0 173 33t124 88t72 122.5t25 139.5q0 73 -25.5 141.5t-73 124.5t-124 90t-171.5 35h-460v-774z" />
<glyph unicode="&#x421;" horiz-adv-x="1196" d="M160 385v680q0 96 44 175t117.5 128t164 75.5t188.5 26.5q143 0 265.5 -53.5t184.5 -154.5l-45 -33q-55 91 -168.5 141.5t-242.5 50.5q-116 0 -218 -40.5t-170.5 -126t-68.5 -199.5v-670q0 -86 39.5 -155t105 -111.5t146 -65t166.5 -22.5q129 0 241 46.5t170 135.5 l45 -23q-62 -101 -187 -155.5t-269 -54.5q-77 0 -150 16t-138 49.5t-114 81t-77.5 114t-28.5 144.5z" />
<glyph unicode="&#x422;" horiz-adv-x="1107" d="M45 1399v51h1018v-51h-483v-1399h-52v1399h-483z" />
<glyph unicode="&#x423;" horiz-adv-x="1036" d="M6 1450h66l354 -731l104 -213h2l89 199l335 745h60l-658 -1450h-59l203 442z" />
<glyph unicode="&#x424;" horiz-adv-x="1484" d="M123 522v406q0 84 33.5 147t87.5 100t134 60t160 31t179 8v176h51v-176q99 0 179 -8t160 -31t134 -60t87.5 -100t33.5 -147v-406q0 -84 -33.5 -147t-87.5 -100t-134 -60t-160 -31t-179 -8v-176h-51v176q-99 0 -179 8t-160 31t-134 60t-87.5 100t-33.5 147zM174 522 q0 -73 33 -128t84.5 -86t126.5 -50t145 -25t154 -6v996q-84 0 -154 -6t-145 -25t-126.5 -50t-84.5 -86t-33 -128v-406zM768 227q84 0 154 6t145 25t126.5 50t84.5 86t33 128v406q0 73 -33 128t-84.5 86t-126.5 50t-145 25t-154 6v-996z" />
<glyph unicode="&#x425;" horiz-adv-x="1120" d="M53 0l477 723l-475 727h58l448 -680l447 680h59l-471 -723l469 -727h-59l-445 688l-444 -688h-64z" />
<glyph unicode="&#x426;" horiz-adv-x="1390" d="M188 0v1450h52v-1397h882v1397h54v-1397h137v-375h-53v322h-1072z" />
<glyph unicode="&#x427;" horiz-adv-x="1236" d="M119 920v530h51v-530q0 -91 33.5 -163.5t90.5 -117t126.5 -67.5t146.5 -23q139 0 238 55.5t190 161.5v684h52v-1450h-52v700q-183 -202 -428 -202q-93 0 -173 26.5t-142 77.5t-97.5 132.5t-35.5 185.5z" />
<glyph unicode="&#x428;" horiz-adv-x="1804" d="M190 0v1450h52v-1399h635v1399h51v-1399h635v1399h51v-1450h-1424z" />
<glyph unicode="&#x429;" horiz-adv-x="1826" d="M186 0v1450h52v-1397h634v1397h52v-1397h635v1397h53v-1397h135v-375h-51v322h-1510z" />
<glyph unicode="&#x42a;" horiz-adv-x="1386" d="M49 1401v49h330v-619h483q219 0 327 -108t105 -336q-1 -109 -35.5 -186t-97.5 -120t-140 -62t-177 -19h-516v1401h-279zM379 49h467q397 0 397 340q0 207 -102 300t-295 93h-467v-733z" />
<glyph unicode="&#x42b;" horiz-adv-x="1658" d="M190 0v1450h52v-619h483q219 0 327 -108t105 -336q-1 -109 -35.5 -186t-97.5 -120t-140 -62t-177 -19h-517zM242 49h467q397 0 397 340q0 207 -102 300t-295 93h-467v-733zM1417 0v1450h51v-1450h-51z" />
<glyph unicode="&#x42c;" horiz-adv-x="1249" d="M190 0v1450h52v-619h483q219 0 327 -108t105 -336q-1 -109 -35.5 -186t-97.5 -120t-140 -62t-177 -19h-517zM242 49h467q397 0 397 340q0 207 -102 300t-295 93h-467v-733z" />
<glyph unicode="&#x42d;" horiz-adv-x="1218" d="M94 190l45 23q58 -89 170 -135.5t242 -46.5q86 0 166.5 22.5t146 65t105 111.5t39.5 155v313h-693v56h693v311q0 86 -39.5 155.5t-105 112.5t-146 65.5t-166.5 22.5q-130 0 -244.5 -50.5t-169.5 -141.5l-43 33q62 100 186 154t267 54q103 0 195 -26.5t163 -76 t112.5 -127.5t41.5 -175v-680q0 -78 -28.5 -144.5t-77.5 -114t-114 -81t-138 -49.5t-150 -16q-144 0 -269.5 54.5t-187.5 155.5z" />
<glyph unicode="&#x42e;" horiz-adv-x="1882" d="M186 0v1450h52v-694h415v305q0 101 46 181t123 128.5t171.5 74t198.5 25.5q83 0 160 -15.5t147 -48t121.5 -79.5t82 -115.5t30.5 -150.5v-668q0 -81 -30.5 -149.5t-82.5 -116t-121 -81t-147 -49t-160 -15.5q-104 0 -198.5 25.5t-171.5 74.5t-123 129.5t-46 181.5v312 h-415v-705h-52zM705 393q0 -116 71.5 -199.5t179.5 -122t236 -38.5q94 0 180 23t156 66t111.5 113.5t41.5 157.5v668q0 74 -28 135t-74.5 102t-110 69t-133.5 41t-145 13q-95 -1 -179.5 -22.5t-154 -64t-110.5 -113t-41 -160.5v-668z" />
<glyph unicode="&#x42f;" horiz-adv-x="1271" d="M76 0l549 633q-104 0 -192.5 21t-161.5 64.5t-114.5 120.5t-41.5 181q0 89 27.5 164.5t83.5 136t149.5 95t216.5 34.5h489v-1450h-51l4 633h-344l-549 -633h-65zM166 1020q0 -86 40.5 -153.5t106 -106t139.5 -58.5t150 -20h432l-4 719h-455q-107 0 -188.5 -32t-128 -87 t-69.5 -121t-23 -141z" />
<glyph unicode="&#x430;" d="M37 0l536 1450h82l537 -1450h-55l-193 518h-659l-193 -518h-55zM303 569h623l-308 832h-8z" />
<glyph unicode="&#x431;" horiz-adv-x="1267" d="M190 0v1450h879v-47h-827v-598h495q217 0 326 -103.5t106 -314.5q-1 -109 -35.5 -186t-97.5 -120t-140 -62t-177 -19h-529zM242 49h479q185 -3 291 78.5t106 261.5q0 367 -397 367h-479v-707z" />
<glyph unicode="&#x432;" horiz-adv-x="1284" d="M190 0v1450h531q166 0 272.5 -93t106.5 -259q0 -96 -36.5 -173t-109.5 -120l-63 -35l72 -25q57 -24 99.5 -65.5t65 -91.5t32.5 -99.5t9 -101.5q-2 -109 -36.5 -186t-97 -120t-140 -62t-176.5 -19h-529zM242 49h479q185 -3 291 78.5t106 261.5q0 357 -397 354h-479v-694z M242 793h479q150 0 240 76t90 227q0 147 -93 227t-237 80h-479v-610z" />
<glyph unicode="&#x433;" horiz-adv-x="1054" d="M190 0v1450h820v-51h-768v-1399h-52z" />
<glyph unicode="&#x434;" horiz-adv-x="1372" d="M39 53h137l471 1397h76l473 -1397h137v-375h-53v322h-1188v-322h-53v375zM231 53h912l-459 1348z" />
<glyph unicode="&#x435;" horiz-adv-x="1157" d="M190 0v1450h863v-51h-811v-649h749v-56h-749v-643h811v-51h-863z" />
<glyph unicode="&#x436;" horiz-adv-x="1767" d="M37 1450l78 -2l743 -836v838h51v-838l744 836l78 2l-621 -688l598 -762h-70l-565 721l-164 -182v-539h-51v539l-164 182l-565 -721h-70l598 762z" />
<glyph unicode="&#x437;" horiz-adv-x="1091" d="M68 188l43 27q144 -186 415 -186q181 -3 289.5 87.5t108.5 272.5q0 184 -104 271.5t-294 87.5h-178v43h178q149 0 239.5 77t90.5 228q0 160 -92 243.5t-238 83.5q-114 0 -206.5 -37t-147.5 -114l-41 20q119 178 395 178q168 0 273.5 -96t105.5 -276q0 -117 -46 -190 t-177 -138q78 -25 133.5 -58.5t86.5 -68t48 -80t21.5 -84.5t3.5 -92q-2 -109 -37 -189t-97 -127t-140.5 -69t-176.5 -22q-308 0 -456 208z" />
<glyph unicode="&#x438;" horiz-adv-x="1406" d="M190 0v1450h52v-1260l-2 -141h2l88 135l817 1266h70v-1450h-52v1276l2 108h-2l-73 -110l-822 -1274h-80z" />
<glyph unicode="&#x439;" horiz-adv-x="1406" d="M190 0v1450h52v-1223l-2 -178h2l106 164l797 1237h72v-1450h-52v1278l2 106h-2l-69 -106l-826 -1278h-80zM401 1886h52q22 -99 84.5 -158t169.5 -59t169.5 59t84.5 158h51q-19 -119 -100 -193.5t-205 -74.5t-205.5 74.5t-100.5 193.5z" />
<glyph unicode="&#x43a;" horiz-adv-x="1210" d="M190 0v1450h52v-881l858 881h65l-669 -698l669 -752h-59l-647 715l-217 -217v-498h-52z" />
<glyph unicode="&#x43b;" horiz-adv-x="1204" d="M39 0l514 1450h96l516 -1450h-57l-397 1133l-107 290h-10l-105 -299l-395 -1124h-55z" />
<glyph unicode="&#x43c;" horiz-adv-x="1632" d="M190 0v1450h109l518 -1174l516 1174h109v-1450h-51v1413h-19l-520 -1184h-70l-522 1170l-18 -2v-1397h-52z" />
<glyph unicode="&#x43d;" horiz-adv-x="1398" d="M190 0v1450h52v-700h915v700h51v-1450h-51v698h-915v-698h-52z" />
<glyph unicode="&#x43e;" horiz-adv-x="1396" d="M158 391v670q0 98 46 178t122.5 129t171.5 75.5t198 26.5q82 0 160 -16t147 -50t121 -81.5t82.5 -115t30.5 -146.5v-670q0 -98 -46 -178t-123.5 -130t-173 -76.5t-198.5 -26.5t-198 26.5t-171.5 76.5t-122.5 130t-46 178zM209 391q0 -116 71.5 -199.5t179.5 -122 t236 -38.5q94 0 180 23t156 66t112 113.5t42 157.5v670q0 92 -42 163t-113 113t-156.5 63t-180.5 21q-95 -1 -179.5 -22.5t-154 -64t-110.5 -113t-41 -160.5v-670z" />
<glyph unicode="&#x43f;" horiz-adv-x="1382" d="M190 0v1450h1002v-1450h-51v1399h-899v-1399h-52z" />
<glyph unicode="&#x440;" horiz-adv-x="1232" d="M190 0v1450h512q107 -1 193.5 -40t140.5 -102t82.5 -139.5t28.5 -158.5q0 -81 -28.5 -156.5t-81.5 -137.5t-139 -99.5t-193 -38.5h-463v-578h-52zM242 629h460q96 0 173 33t124 88t72 122.5t25 139.5q0 73 -25.5 141.5t-73 124.5t-124 90t-171.5 35h-460v-774z" />
<glyph unicode="&#x441;" horiz-adv-x="1196" d="M160 385v680q0 96 44 175t117.5 128t164 75.5t188.5 26.5q143 0 265.5 -53.5t184.5 -154.5l-45 -33q-55 91 -168.5 141.5t-242.5 50.5q-116 0 -218 -40.5t-170.5 -126t-68.5 -199.5v-670q0 -86 39.5 -155t105 -111.5t146 -65t166.5 -22.5q129 0 241 46.5t170 135.5 l45 -23q-62 -101 -187 -155.5t-269 -54.5q-77 0 -150 16t-138 49.5t-114 81t-77.5 114t-28.5 144.5z" />
<glyph unicode="&#x442;" horiz-adv-x="1107" d="M45 1399v51h1018v-51h-483v-1399h-52v1399h-483z" />
<glyph unicode="&#x443;" horiz-adv-x="1036" d="M6 1450h66l354 -731l104 -213h2l89 199l335 745h60l-658 -1450h-59l203 442z" />
<glyph unicode="&#x444;" horiz-adv-x="1484" d="M123 522v406q0 84 33.5 147t87.5 100t134 60t160 31t179 8v176h51v-176q99 0 179 -8t160 -31t134 -60t87.5 -100t33.5 -147v-406q0 -84 -33.5 -147t-87.5 -100t-134 -60t-160 -31t-179 -8v-176h-51v176q-99 0 -179 8t-160 31t-134 60t-87.5 100t-33.5 147zM174 522 q0 -73 33 -128t84.5 -86t126.5 -50t145 -25t154 -6v996q-84 0 -154 -6t-145 -25t-126.5 -50t-84.5 -86t-33 -128v-406zM768 227q84 0 154 6t145 25t126.5 50t84.5 86t33 128v406q0 73 -33 128t-84.5 86t-126.5 50t-145 25t-154 6v-996z" />
<glyph unicode="&#x445;" horiz-adv-x="1120" d="M53 0l477 723l-475 727h58l448 -680l447 680h59l-471 -723l469 -727h-59l-445 688l-444 -688h-64z" />
<glyph unicode="&#x446;" horiz-adv-x="1390" d="M188 0v1450h52v-1397h882v1397h54v-1397h137v-375h-53v322h-1072z" />
<glyph unicode="&#x447;" horiz-adv-x="1236" d="M119 920v530h51v-530q0 -91 33.5 -163.5t90.5 -117t126.5 -67.5t146.5 -23q139 0 238 55.5t190 161.5v684h52v-1450h-52v700q-183 -202 -428 -202q-93 0 -173 26.5t-142 77.5t-97.5 132.5t-35.5 185.5z" />
<glyph unicode="&#x448;" horiz-adv-x="1804" d="M190 0v1450h52v-1399h635v1399h51v-1399h635v1399h51v-1450h-1424z" />
<glyph unicode="&#x449;" horiz-adv-x="1826" d="M186 0v1450h52v-1397h634v1397h52v-1397h635v1397h53v-1397h135v-375h-51v322h-1510z" />
<glyph unicode="&#x44a;" horiz-adv-x="1386" d="M49 1401v49h330v-619h483q219 0 327 -108t105 -336q-1 -109 -35.5 -186t-97.5 -120t-140 -62t-177 -19h-516v1401h-279zM379 49h467q397 0 397 340q0 207 -102 300t-295 93h-467v-733z" />
<glyph unicode="&#x44b;" horiz-adv-x="1658" d="M190 0v1450h52v-619h483q219 0 327 -108t105 -336q-1 -109 -35.5 -186t-97.5 -120t-140 -62t-177 -19h-517zM242 49h467q397 0 397 340q0 207 -102 300t-295 93h-467v-733zM1417 0v1450h51v-1450h-51z" />
<glyph unicode="&#x44c;" horiz-adv-x="1249" d="M190 0v1450h52v-619h483q219 0 327 -108t105 -336q-1 -109 -35.5 -186t-97.5 -120t-140 -62t-177 -19h-517zM242 49h467q397 0 397 340q0 207 -102 300t-295 93h-467v-733z" />
<glyph unicode="&#x44d;" horiz-adv-x="1218" d="M94 190l45 23q58 -89 170 -135.5t242 -46.5q86 0 166.5 22.5t146 65t105 111.5t39.5 155v313h-693v56h693v311q0 86 -39.5 155.5t-105 112.5t-146 65.5t-166.5 22.5q-130 0 -244.5 -50.5t-169.5 -141.5l-43 33q62 100 186 154t267 54q103 0 195 -26.5t163 -76 t112.5 -127.5t41.5 -175v-680q0 -78 -28.5 -144.5t-77.5 -114t-114 -81t-138 -49.5t-150 -16q-144 0 -269.5 54.5t-187.5 155.5z" />
<glyph unicode="&#x44e;" horiz-adv-x="1882" d="M186 0v1450h52v-694h415v305q0 101 46 181t123 128.5t171.5 74t198.5 25.5q83 0 160 -15.5t147 -48t121.5 -79.5t82 -115.5t30.5 -150.5v-668q0 -81 -30.5 -149.5t-82.5 -116t-121 -81t-147 -49t-160 -15.5q-104 0 -198.5 25.5t-171.5 74.5t-123 129.5t-46 181.5v312 h-415v-705h-52zM705 393q0 -116 71.5 -199.5t179.5 -122t236 -38.5q94 0 180 23t156 66t111.5 113.5t41.5 157.5v668q0 74 -28 135t-74.5 102t-110 69t-133.5 41t-145 13q-95 -1 -179.5 -22.5t-154 -64t-110.5 -113t-41 -160.5v-668z" />
<glyph unicode="&#x44f;" horiz-adv-x="1271" d="M76 0l549 633q-104 0 -192.5 21t-161.5 64.5t-114.5 120.5t-41.5 181q0 89 27.5 164.5t83.5 136t149.5 95t216.5 34.5h489v-1450h-51l4 633h-344l-549 -633h-65zM166 1020q0 -86 40.5 -153.5t106 -106t139.5 -58.5t150 -20h432l-4 719h-455q-107 0 -188.5 -32t-128 -87 t-69.5 -121t-23 -141z" />
<glyph unicode="&#x451;" horiz-adv-x="1157" d="M190 0v1450h863v-51h-811v-649h749v-56h-749v-643h811v-51h-863zM389 1657q0 20 14.5 34.5t34.5 14.5t34.5 -14.5t14.5 -34.5t-14.5 -34.5t-34.5 -14.5t-34.5 14.5t-14.5 34.5zM758 1657q0 20 14.5 34.5t34.5 14.5t34.5 -14.5t14.5 -34.5t-14.5 -34.5t-34.5 -14.5 t-34.5 14.5t-14.5 34.5z" />
<glyph unicode="&#x2000;" horiz-adv-x="943" />
<glyph unicode="&#x2001;" horiz-adv-x="1886" />
<glyph unicode="&#x2002;" horiz-adv-x="943" />
<glyph unicode="&#x2003;" horiz-adv-x="1886" />
<glyph unicode="&#x2004;" horiz-adv-x="628" />
<glyph unicode="&#x2005;" horiz-adv-x="471" />
<glyph unicode="&#x2006;" horiz-adv-x="314" />
<glyph unicode="&#x2007;" horiz-adv-x="314" />
<glyph unicode="&#x2008;" horiz-adv-x="235" />
<glyph unicode="&#x2009;" horiz-adv-x="377" />
<glyph unicode="&#x200a;" horiz-adv-x="104" />
<glyph unicode="&#x2010;" horiz-adv-x="862" d="M156 590v49h551v-49h-551z" />
<glyph unicode="&#x2011;" horiz-adv-x="862" d="M156 590v49h551v-49h-551z" />
<glyph unicode="&#x2012;" horiz-adv-x="862" d="M156 590v49h551v-49h-551z" />
<glyph unicode="&#x2013;" horiz-adv-x="1191" d="M156 590v47h880v-47h-880z" />
<glyph unicode="&#x2014;" horiz-adv-x="2076" d="M156 590v47h1765v-47h-1765z" />
<glyph unicode="&#x2018;" horiz-adv-x="411" d="M133 1090l113 360h51l-92 -360h-72z" />
<glyph unicode="&#x2019;" horiz-adv-x="411" d="M135 1087l98 363h76l-129 -363h-45z" />
<glyph unicode="&#x201a;" horiz-adv-x="382" d="M53 -248l107 316h78l-138 -316h-47z" />
<glyph unicode="&#x201c;" horiz-adv-x="643" d="M133 1090q22 68 63.5 188t59.5 174h47l-96 -362h-74zM360 1090q22 68 63.5 188t59.5 174h47l-96 -362h-74z" />
<glyph unicode="&#x201d;" horiz-adv-x="626" d="M135 1075l80 375h72q-17 -57 -53 -184t-56 -191h-43zM365 1075l79 375h72q-17 -58 -53 -185t-55 -190h-43z" />
<glyph unicode="&#x201e;" horiz-adv-x="657" d="M57 -248l107 318h76l-136 -318h-47zM315 -248l107 318h84l-144 -318h-47z" />
<glyph unicode="&#x2020;" horiz-adv-x="985" d="M76 995v43h391v414h45v-414h397v-43h-397v-1228h-45v1228h-391z" />
<glyph unicode="&#x2021;" horiz-adv-x="1130" d="M150 178v41h393v797h-393v45h393v391h45v-391h393v-45h-393v-797h393v-41h-393v-401h-45v401h-393z" />
<glyph unicode="&#x2022;" horiz-adv-x="745" d="M186 725q0 76 55 131t132 55t131.5 -54.5t54.5 -131.5t-54.5 -131.5t-131.5 -54.5t-132 55t-55 131z" />
<glyph unicode="&#x2026;" horiz-adv-x="1247" d="M158 59q0 26 18.5 45t44.5 19t45 -19t19 -45t-19 -44.5t-45 -18.5t-44.5 18.5t-18.5 44.5zM555 61q0 26 18.5 45t44.5 19t45 -19t19 -45t-19 -44.5t-45 -18.5t-44.5 18.5t-18.5 44.5zM963 66q0 26 18.5 44.5t44.5 18.5t45 -18.5t19 -44.5t-19 -45t-45 -19t-44.5 19 t-18.5 45z" />
<glyph unicode="&#x202f;" horiz-adv-x="377" />
<glyph unicode="&#x2030;" horiz-adv-x="2095" d="M98 1079q0 174 78 270.5t205 96.5q133 0 208 -97.5t75 -273.5q0 -169 -79 -268.5t-204 -99.5q-136 0 -209.5 95.5t-73.5 276.5zM158 1079q0 -168 53.5 -242.5t169.5 -74.5q114 0 169.5 76t55.5 237t-59 239.5t-168 78.5q-113 0 -167 -78t-54 -236zM209 -72l1008 1594 l40 -25l-1005 -1595q-9 5 -23.5 14t-19.5 12zM799 358q0 178 77.5 272.5t204.5 94.5q133 0 208 -97.5t75 -273.5q0 -169 -79 -268.5t-204 -99.5q-136 0 -209 95.5t-73 276.5zM852 358q0 -167 55 -242t172 -75q114 0 171 76t57 235q0 161 -60.5 239.5t-169.5 78.5 q-225 0 -225 -312zM1444 358q0 178 77.5 272.5t204.5 94.5q133 0 208 -97.5t75 -273.5q0 -169 -79 -268.5t-204 -99.5q-136 0 -209 95.5t-73 276.5zM1497 358q0 -167 55 -242t172 -75q114 0 171 76t57 235q0 161 -60.5 239.5t-169.5 78.5q-225 0 -225 -312z" />
<glyph unicode="&#x2039;" horiz-adv-x="520" d="M94 604l250 371q1 -1 19 -10t22 -13q3 -3 -233 -348q185 -273 235 -344l-43 -22z" />
<glyph unicode="&#x203a;" horiz-adv-x="522" d="M135 948l41 23l250 -367l-250 -371q-1 1 -18 10t-21 13q-3 3 234 348q-226 329 -236 344z" />
<glyph unicode="&#x2044;" horiz-adv-x="1009" d="M35 -4l897 1474l43 -20l-901 -1473z" />
<glyph unicode="&#x205f;" horiz-adv-x="471" />
<glyph unicode="&#x20ac;" horiz-adv-x="1220" d="M94 586l8 43h117v168h-117l11 45h106v217q0 98 40.5 177.5t107 129.5t149.5 77t172 27q128 0 241.5 -55.5t176.5 -157.5l-43 -24q-53 91 -158 140.5t-217 49.5q-81 0 -155 -22.5t-134 -66t-95.5 -114.5t-35.5 -161v-217h555l-10 -45h-545v-168h561l-10 -43h-551v-197 q0 -87 35.5 -157.5t94.5 -114t132 -67t152 -23.5q118 0 220 48.5t165 141.5l39 -24q-63 -102 -178 -157.5t-246 -55.5q-88 0 -169.5 26.5t-147.5 75.5t-106 129t-40 178v197h-125z" />
<glyph unicode="&#x2122;" horiz-adv-x="1687" d="M80 1419v31h569v-31h-266v-698h-37v698h-266zM817 721v729h66l284 -612q93 205 157.5 343t91 192.5t36.5 76.5h66v-729h-37l2 706h-6l-285 -612h-49l-283 606h-8v-700h-35z" />
<glyph unicode="&#x2202;" horiz-adv-x="1028" d="M100 416q0 105 32.5 196t86.5 152t123.5 96t142.5 35q120 0 220 -70t133 -168q16 76 16 203q-1 118 -27 224.5t-75.5 191t-129.5 134.5t-180 50q-139 0 -243 -69l-19 41q118 79 273 79q134 0 236 -85.5t157 -236.5t55 -345q0 -143 -18 -269q-20 -130 -57 -234 t-91.5 -182.5t-130.5 -121.5t-168 -43q-105 0 -183 61.5t-115.5 155.5t-37.5 205zM150 420q0 -167 80 -271t208 -104h2q101 0 189 74t141.5 200t56.5 271q-28 89 -126 171.5t-214 82.5q-137 0 -237 -123.5t-100 -300.5z" />
<glyph unicode="&#x2206;" horiz-adv-x="1163" d="M59 0v49q81 232 241 700.5t241 700.5h86l477 -1399v-51h-1045zM113 45h931l-454 1364h-12z" />
<glyph unicode="&#x220f;" horiz-adv-x="1280" d="M61 1405v45h1160v-45h-209v-1514h-47v1514h-646v-1514h-49v1514h-209z" />
<glyph unicode="&#x2211;" horiz-adv-x="1071" d="M78 -106l555 735q-87 123 -265.5 387t-265.5 387v47h850v-45h-788q238 -348 530 -768l-559 -746h850v-43h-907v46z" />
<glyph unicode="&#x221a;" horiz-adv-x="1034" d="M41 666l197 71l297 -936l10 2l389 1876h49l-414 -1960h-55l-307 961l-148 -53q-3 10 -9.5 22.5t-8.5 16.5z" />
<glyph unicode="&#x221e;" horiz-adv-x="1523" d="M133 592q0 121 74.5 201.5t193.5 80.5q48 0 95.5 -19t97.5 -59t83.5 -73t86.5 -90l41 47v-2q43 47 71 74t71 60.5t88 49t95 15.5q115 -1 188 -79t73 -198v-2q0 -122 -82.5 -201.5t-192.5 -79.5q-76 0 -157 58t-197 184q-54 -59 -86.5 -91t-82.5 -73t-98 -59.5t-98 -18.5 q-108 0 -186 81t-78 194zM174 590q2 -99 67 -165.5t167 -66.5h2q38 0 78 16.5t78.5 47t67 57.5t62.5 64l45 45q-44 52 -75.5 85t-79.5 75.5t-96.5 64t-96.5 21.5q-99 0 -159 -71.5t-60 -172.5zM780 598q127 -135 195.5 -187.5t146.5 -52.5q99 0 161.5 71t62.5 163 q0 112 -64 177t-162 65h-2q-40 0 -80 -15.5t-78 -46t-63 -54.5t-59 -61z" />
<glyph unicode="&#x222b;" horiz-adv-x="626" d="M43 -274l6 45q7 -1 21 -5t25 -6t18 -2q188 0 188 215q0 170 -12 756q-13 626 -13 733q0 129 62.5 207t148.5 78q44 0 95 -23l-7 -41q-59 19 -79 19q-80 0 -126.5 -68.5t-45.5 -183.5l10 -543q16 -692 16 -936q0 -125 -63.5 -191.5t-157.5 -66.5q-48 0 -86 13z" />
<glyph unicode="&#x2248;" horiz-adv-x="1083" d="M160 467q79 108 188 108q79 0 174 -57l33 -18q75 -43 115.5 -59.5t83.5 -16.5q84 0 141 68l27 -21q-73 -92 -177 -92q-43 0 -85 17.5t-117 58.5q-48 27 -72.5 39t-61 24t-67.5 12q-92 0 -154 -84zM160 735q78 107 186 107q83 0 176 -56l33 -18q75 -43 115.5 -59.5 t83.5 -16.5q84 0 141 68l29 -21q-73 -92 -176 -92q-43 0 -87.5 18t-117.5 58q-50 28 -73 39.5t-60 24t-68 12.5q-92 0 -154 -84z" />
<glyph unicode="&#x2260;" horiz-adv-x="1140" d="M154 383v39h317l147 328h-464v38h481l96 218l33 -13l-94 -205h317v-38h-330l-147 -328h477v-39h-493l-103 -219l-31 14l95 205h-301z" />
<glyph unicode="&#x2264;" horiz-adv-x="993" d="M141 152v41h707v-41h-707zM170 725v53l651 371v-49l-624 -348l624 -342v-48q-110 62 -325 181.5t-326 181.5z" />
<glyph unicode="&#x2265;" horiz-adv-x="997" d="M145 154v39h707v-39h-707zM172 362v48l625 342q-514 286 -625 348v49q112 -65 327 -186t326 -185v-53z" />
<glyph unicode="&#x25ca;" horiz-adv-x="1042" d="M61 727l160 289q49 91 142.5 256t121.5 215h78q69 -127 209.5 -379t210.5 -379l-426 -760h-80zM121 731l395 -739l408 735l-404 743z" />
<glyph unicode="&#x25fc;" horiz-adv-x="1454" d="M0 0v1454h1454v-1454h-1454z" />
</font>
</defs>
</svg>
